<mxfile host="app.diagrams.net" agent="Mozilla/5.0 (Windows NT 10.0; Win64; x64) AppleWebKit/537.36 (KHTML, like Gecko) Chrome/131.0.0.0 Safari/537.36" version="24.9.3">
  <diagram name="ページ1" id="HD49NOsrk-cGcU3xzbyI">
    <mxGraphModel dx="2593" dy="965" grid="1" gridSize="10" guides="1" tooltips="1" connect="1" arrows="1" fold="1" page="1" pageScale="1" pageWidth="827" pageHeight="1169" math="0" shadow="0">
      <root>
        <mxCell id="0" />
        <mxCell id="1" parent="0" />
        <mxCell id="7OgDLUYvquiYCTceMPZs-290" value="" style="shape=partialRectangle;whiteSpace=wrap;html=1;left=0;right=0;fillColor=none;" vertex="1" parent="1">
          <mxGeometry x="1160" y="1560" width="280" height="120" as="geometry" />
        </mxCell>
        <mxCell id="7OgDLUYvquiYCTceMPZs-273" value="" style="shape=partialRectangle;whiteSpace=wrap;html=1;left=0;right=0;fillColor=none;" vertex="1" parent="1">
          <mxGeometry x="320" y="2120" width="280" height="120" as="geometry" />
        </mxCell>
        <mxCell id="F1WxcwXqjHmNWAGrEvEr-16" value="" style="ellipse;whiteSpace=wrap;html=1;aspect=fixed;fillColor=#000000;" parent="1" vertex="1">
          <mxGeometry x="200" y="80" width="40" height="40" as="geometry" />
        </mxCell>
        <mxCell id="F1WxcwXqjHmNWAGrEvEr-17" value="メールアドレス入力" style="rounded=1;whiteSpace=wrap;html=1;" parent="1" vertex="1">
          <mxGeometry x="160" y="160" width="120" height="40" as="geometry" />
        </mxCell>
        <mxCell id="F1WxcwXqjHmNWAGrEvEr-18" value="メアドチェック" style="rounded=1;whiteSpace=wrap;html=1;" parent="1" vertex="1">
          <mxGeometry x="400" y="160" width="120" height="40" as="geometry" />
        </mxCell>
        <mxCell id="F1WxcwXqjHmNWAGrEvEr-19" value="" style="rhombus;whiteSpace=wrap;html=1;" parent="1" vertex="1">
          <mxGeometry x="440" y="240" width="40" height="40" as="geometry" />
        </mxCell>
        <mxCell id="F1WxcwXqjHmNWAGrEvEr-20" value="" style="endArrow=classic;html=1;rounded=0;entryX=0;entryY=0.5;entryDx=0;entryDy=0;" parent="1" source="F1WxcwXqjHmNWAGrEvEr-17" target="F1WxcwXqjHmNWAGrEvEr-18" edge="1">
          <mxGeometry width="50" height="50" relative="1" as="geometry">
            <mxPoint x="570" y="290" as="sourcePoint" />
            <mxPoint x="620" y="240" as="targetPoint" />
          </mxGeometry>
        </mxCell>
        <mxCell id="F1WxcwXqjHmNWAGrEvEr-21" value="" style="endArrow=classic;html=1;rounded=0;entryX=0.5;entryY=0;entryDx=0;entryDy=0;exitX=0.5;exitY=1;exitDx=0;exitDy=0;" parent="1" source="F1WxcwXqjHmNWAGrEvEr-18" target="F1WxcwXqjHmNWAGrEvEr-19" edge="1">
          <mxGeometry width="50" height="50" relative="1" as="geometry">
            <mxPoint x="170" y="190" as="sourcePoint" />
            <mxPoint x="410" y="190" as="targetPoint" />
          </mxGeometry>
        </mxCell>
        <mxCell id="F1WxcwXqjHmNWAGrEvEr-22" value="重複あり" style="text;html=1;align=center;verticalAlign=middle;whiteSpace=wrap;rounded=0;" parent="1" vertex="1">
          <mxGeometry x="240" y="240" width="60" height="20" as="geometry" />
        </mxCell>
        <mxCell id="F1WxcwXqjHmNWAGrEvEr-23" value="" style="edgeStyle=segmentEdgeStyle;endArrow=classic;html=1;curved=0;rounded=0;endSize=8;startSize=8;exitX=0;exitY=0.5;exitDx=0;exitDy=0;entryX=0.5;entryY=1;entryDx=0;entryDy=0;" parent="1" source="F1WxcwXqjHmNWAGrEvEr-19" target="F1WxcwXqjHmNWAGrEvEr-17" edge="1">
          <mxGeometry width="50" height="50" relative="1" as="geometry">
            <mxPoint x="570" y="370" as="sourcePoint" />
            <mxPoint x="620" y="320" as="targetPoint" />
          </mxGeometry>
        </mxCell>
        <mxCell id="F1WxcwXqjHmNWAGrEvEr-24" value="" style="endArrow=classic;html=1;rounded=0;entryX=0.5;entryY=0;entryDx=0;entryDy=0;exitX=0.5;exitY=1;exitDx=0;exitDy=0;" parent="1" source="F1WxcwXqjHmNWAGrEvEr-16" target="F1WxcwXqjHmNWAGrEvEr-17" edge="1">
          <mxGeometry width="50" height="50" relative="1" as="geometry">
            <mxPoint x="590" y="210" as="sourcePoint" />
            <mxPoint x="590" y="250" as="targetPoint" />
          </mxGeometry>
        </mxCell>
        <mxCell id="F1WxcwXqjHmNWAGrEvEr-25" value="登録URLの送信" style="rounded=1;whiteSpace=wrap;html=1;" parent="1" vertex="1">
          <mxGeometry x="400" y="320" width="120" height="40" as="geometry" />
        </mxCell>
        <mxCell id="F1WxcwXqjHmNWAGrEvEr-26" value="" style="edgeStyle=elbowEdgeStyle;elbow=vertical;endArrow=classic;html=1;curved=0;rounded=0;endSize=8;startSize=8;exitX=0.5;exitY=1;exitDx=0;exitDy=0;" parent="1" source="F1WxcwXqjHmNWAGrEvEr-25" edge="1">
          <mxGeometry width="50" height="50" relative="1" as="geometry">
            <mxPoint x="570" y="370" as="sourcePoint" />
            <mxPoint x="220" y="400" as="targetPoint" />
          </mxGeometry>
        </mxCell>
        <mxCell id="F1WxcwXqjHmNWAGrEvEr-27" value="" style="endArrow=classic;html=1;rounded=0;entryX=0.5;entryY=0;entryDx=0;entryDy=0;exitX=0.5;exitY=1;exitDx=0;exitDy=0;" parent="1" source="F1WxcwXqjHmNWAGrEvEr-19" target="F1WxcwXqjHmNWAGrEvEr-25" edge="1">
          <mxGeometry width="50" height="50" relative="1" as="geometry">
            <mxPoint x="470" y="210" as="sourcePoint" />
            <mxPoint x="470" y="250" as="targetPoint" />
          </mxGeometry>
        </mxCell>
        <mxCell id="F1WxcwXqjHmNWAGrEvEr-28" value="重複無し" style="text;html=1;align=center;verticalAlign=middle;whiteSpace=wrap;rounded=0;" parent="1" vertex="1">
          <mxGeometry x="480" y="290" width="60" height="20" as="geometry" />
        </mxCell>
        <mxCell id="F1WxcwXqjHmNWAGrEvEr-29" value="アカウント情報入力" style="rounded=1;whiteSpace=wrap;html=1;" parent="1" vertex="1">
          <mxGeometry x="160" y="400" width="120" height="40" as="geometry" />
        </mxCell>
        <mxCell id="F1WxcwXqjHmNWAGrEvEr-30" value="&lt;h1 style=&quot;margin-top: 0px;&quot;&gt;&lt;font style=&quot;font-size: 18px;&quot;&gt;アカウント情報&lt;/font&gt;&lt;/h1&gt;&lt;p&gt;・ユーザID&lt;/p&gt;&lt;p&gt;・パスワード&lt;/p&gt;" style="text;html=1;whiteSpace=wrap;overflow=hidden;rounded=0;" parent="1" vertex="1">
          <mxGeometry x="40" y="440" width="180" height="100" as="geometry" />
        </mxCell>
        <mxCell id="F1WxcwXqjHmNWAGrEvEr-31" value="ユーザIDチェック" style="rounded=1;whiteSpace=wrap;html=1;" parent="1" vertex="1">
          <mxGeometry x="400" y="400" width="120" height="40" as="geometry" />
        </mxCell>
        <mxCell id="F1WxcwXqjHmNWAGrEvEr-32" value="" style="rhombus;whiteSpace=wrap;html=1;" parent="1" vertex="1">
          <mxGeometry x="440" y="480" width="40" height="40" as="geometry" />
        </mxCell>
        <mxCell id="F1WxcwXqjHmNWAGrEvEr-33" value="" style="endArrow=classic;html=1;rounded=0;entryX=0;entryY=0.5;entryDx=0;entryDy=0;" parent="1" target="F1WxcwXqjHmNWAGrEvEr-31" edge="1">
          <mxGeometry width="50" height="50" relative="1" as="geometry">
            <mxPoint x="280" y="420" as="sourcePoint" />
            <mxPoint x="620" y="480" as="targetPoint" />
          </mxGeometry>
        </mxCell>
        <mxCell id="F1WxcwXqjHmNWAGrEvEr-34" value="重複あり" style="text;html=1;align=center;verticalAlign=middle;whiteSpace=wrap;rounded=0;" parent="1" vertex="1">
          <mxGeometry x="240" y="480" width="60" height="20" as="geometry" />
        </mxCell>
        <mxCell id="F1WxcwXqjHmNWAGrEvEr-35" value="" style="edgeStyle=segmentEdgeStyle;endArrow=classic;html=1;curved=0;rounded=0;endSize=8;startSize=8;exitX=0;exitY=0.5;exitDx=0;exitDy=0;" parent="1" source="F1WxcwXqjHmNWAGrEvEr-32" edge="1">
          <mxGeometry width="50" height="50" relative="1" as="geometry">
            <mxPoint x="570" y="610" as="sourcePoint" />
            <mxPoint x="220" y="440" as="targetPoint" />
          </mxGeometry>
        </mxCell>
        <mxCell id="F1WxcwXqjHmNWAGrEvEr-36" value="" style="endArrow=classic;html=1;rounded=0;entryX=0.5;entryY=0;entryDx=0;entryDy=0;exitX=0.5;exitY=1;exitDx=0;exitDy=0;" parent="1" source="F1WxcwXqjHmNWAGrEvEr-32" edge="1">
          <mxGeometry width="50" height="50" relative="1" as="geometry">
            <mxPoint x="470" y="450" as="sourcePoint" />
            <mxPoint x="460" y="560" as="targetPoint" />
          </mxGeometry>
        </mxCell>
        <mxCell id="F1WxcwXqjHmNWAGrEvEr-37" value="重複無し" style="text;html=1;align=center;verticalAlign=middle;whiteSpace=wrap;rounded=0;" parent="1" vertex="1">
          <mxGeometry x="480" y="530" width="60" height="20" as="geometry" />
        </mxCell>
        <mxCell id="F1WxcwXqjHmNWAGrEvEr-38" value="" style="endArrow=classic;html=1;rounded=0;entryX=0.5;entryY=0;entryDx=0;entryDy=0;exitX=0.5;exitY=1;exitDx=0;exitDy=0;" parent="1" source="F1WxcwXqjHmNWAGrEvEr-31" target="F1WxcwXqjHmNWAGrEvEr-32" edge="1">
          <mxGeometry width="50" height="50" relative="1" as="geometry">
            <mxPoint x="470" y="210" as="sourcePoint" />
            <mxPoint x="470" y="250" as="targetPoint" />
          </mxGeometry>
        </mxCell>
        <mxCell id="F1WxcwXqjHmNWAGrEvEr-39" value="電話番号URLの送信" style="rounded=1;whiteSpace=wrap;html=1;" parent="1" vertex="1">
          <mxGeometry x="400" y="560" width="120" height="40" as="geometry" />
        </mxCell>
        <mxCell id="F1WxcwXqjHmNWAGrEvEr-40" value="" style="edgeStyle=elbowEdgeStyle;elbow=vertical;endArrow=classic;html=1;curved=0;rounded=0;endSize=8;startSize=8;exitX=0.5;exitY=1;exitDx=0;exitDy=0;" parent="1" source="F1WxcwXqjHmNWAGrEvEr-39" edge="1">
          <mxGeometry width="50" height="50" relative="1" as="geometry">
            <mxPoint x="570" y="610" as="sourcePoint" />
            <mxPoint x="220" y="640" as="targetPoint" />
          </mxGeometry>
        </mxCell>
        <mxCell id="F1WxcwXqjHmNWAGrEvEr-41" value="電話番号の入力" style="rounded=1;whiteSpace=wrap;html=1;" parent="1" vertex="1">
          <mxGeometry x="160" y="640" width="120" height="40" as="geometry" />
        </mxCell>
        <mxCell id="F1WxcwXqjHmNWAGrEvEr-42" value="電話番号チェック" style="rounded=1;whiteSpace=wrap;html=1;" parent="1" vertex="1">
          <mxGeometry x="400" y="640" width="120" height="40" as="geometry" />
        </mxCell>
        <mxCell id="F1WxcwXqjHmNWAGrEvEr-43" value="" style="rhombus;whiteSpace=wrap;html=1;" parent="1" vertex="1">
          <mxGeometry x="440" y="720" width="40" height="40" as="geometry" />
        </mxCell>
        <mxCell id="F1WxcwXqjHmNWAGrEvEr-44" value="" style="endArrow=classic;html=1;rounded=0;entryX=0;entryY=0.5;entryDx=0;entryDy=0;" parent="1" target="F1WxcwXqjHmNWAGrEvEr-42" edge="1">
          <mxGeometry width="50" height="50" relative="1" as="geometry">
            <mxPoint x="280" y="660" as="sourcePoint" />
            <mxPoint x="620" y="720" as="targetPoint" />
          </mxGeometry>
        </mxCell>
        <mxCell id="F1WxcwXqjHmNWAGrEvEr-45" value="重複あり" style="text;html=1;align=center;verticalAlign=middle;whiteSpace=wrap;rounded=0;" parent="1" vertex="1">
          <mxGeometry x="240" y="720" width="60" height="20" as="geometry" />
        </mxCell>
        <mxCell id="F1WxcwXqjHmNWAGrEvEr-46" value="" style="edgeStyle=segmentEdgeStyle;endArrow=classic;html=1;curved=0;rounded=0;endSize=8;startSize=8;exitX=0;exitY=0.5;exitDx=0;exitDy=0;" parent="1" source="F1WxcwXqjHmNWAGrEvEr-43" edge="1">
          <mxGeometry width="50" height="50" relative="1" as="geometry">
            <mxPoint x="570" y="850" as="sourcePoint" />
            <mxPoint x="220" y="680" as="targetPoint" />
          </mxGeometry>
        </mxCell>
        <mxCell id="F1WxcwXqjHmNWAGrEvEr-47" value="" style="endArrow=classic;html=1;rounded=0;entryX=0.5;entryY=0;entryDx=0;entryDy=0;exitX=0.5;exitY=1;exitDx=0;exitDy=0;" parent="1" source="F1WxcwXqjHmNWAGrEvEr-43" edge="1">
          <mxGeometry width="50" height="50" relative="1" as="geometry">
            <mxPoint x="470" y="690" as="sourcePoint" />
            <mxPoint x="460" y="800" as="targetPoint" />
          </mxGeometry>
        </mxCell>
        <mxCell id="F1WxcwXqjHmNWAGrEvEr-48" value="重複無し" style="text;html=1;align=center;verticalAlign=middle;whiteSpace=wrap;rounded=0;" parent="1" vertex="1">
          <mxGeometry x="480" y="770" width="60" height="20" as="geometry" />
        </mxCell>
        <mxCell id="F1WxcwXqjHmNWAGrEvEr-49" value="" style="endArrow=classic;html=1;rounded=0;entryX=0.5;entryY=0;entryDx=0;entryDy=0;exitX=0.5;exitY=1;exitDx=0;exitDy=0;" parent="1" source="F1WxcwXqjHmNWAGrEvEr-42" target="F1WxcwXqjHmNWAGrEvEr-43" edge="1">
          <mxGeometry width="50" height="50" relative="1" as="geometry">
            <mxPoint x="470" y="450" as="sourcePoint" />
            <mxPoint x="470" y="490" as="targetPoint" />
          </mxGeometry>
        </mxCell>
        <mxCell id="F1WxcwXqjHmNWAGrEvEr-50" value="SMSの送信" style="rounded=1;whiteSpace=wrap;html=1;" parent="1" vertex="1">
          <mxGeometry x="400" y="800" width="120" height="40" as="geometry" />
        </mxCell>
        <mxCell id="F1WxcwXqjHmNWAGrEvEr-51" value="" style="edgeStyle=elbowEdgeStyle;elbow=vertical;endArrow=classic;html=1;curved=0;rounded=0;endSize=8;startSize=8;exitX=0.5;exitY=1;exitDx=0;exitDy=0;" parent="1" source="F1WxcwXqjHmNWAGrEvEr-50" edge="1">
          <mxGeometry width="50" height="50" relative="1" as="geometry">
            <mxPoint x="570" y="850" as="sourcePoint" />
            <mxPoint x="220" y="880" as="targetPoint" />
          </mxGeometry>
        </mxCell>
        <mxCell id="F1WxcwXqjHmNWAGrEvEr-52" value="番号の入力" style="rounded=1;whiteSpace=wrap;html=1;" parent="1" vertex="1">
          <mxGeometry x="160" y="880" width="120" height="40" as="geometry" />
        </mxCell>
        <mxCell id="F1WxcwXqjHmNWAGrEvEr-53" value="番号チェック" style="rounded=1;whiteSpace=wrap;html=1;" parent="1" vertex="1">
          <mxGeometry x="400" y="880" width="120" height="40" as="geometry" />
        </mxCell>
        <mxCell id="F1WxcwXqjHmNWAGrEvEr-54" value="" style="rhombus;whiteSpace=wrap;html=1;" parent="1" vertex="1">
          <mxGeometry x="440" y="960" width="40" height="40" as="geometry" />
        </mxCell>
        <mxCell id="F1WxcwXqjHmNWAGrEvEr-55" value="" style="endArrow=classic;html=1;rounded=0;entryX=0;entryY=0.5;entryDx=0;entryDy=0;" parent="1" target="F1WxcwXqjHmNWAGrEvEr-53" edge="1">
          <mxGeometry width="50" height="50" relative="1" as="geometry">
            <mxPoint x="280" y="900" as="sourcePoint" />
            <mxPoint x="620" y="960" as="targetPoint" />
          </mxGeometry>
        </mxCell>
        <mxCell id="F1WxcwXqjHmNWAGrEvEr-56" value="不整合" style="text;html=1;align=center;verticalAlign=middle;whiteSpace=wrap;rounded=0;" parent="1" vertex="1">
          <mxGeometry x="240" y="960" width="60" height="20" as="geometry" />
        </mxCell>
        <mxCell id="F1WxcwXqjHmNWAGrEvEr-57" value="" style="edgeStyle=segmentEdgeStyle;endArrow=classic;html=1;curved=0;rounded=0;endSize=8;startSize=8;exitX=0;exitY=0.5;exitDx=0;exitDy=0;" parent="1" source="F1WxcwXqjHmNWAGrEvEr-54" edge="1">
          <mxGeometry width="50" height="50" relative="1" as="geometry">
            <mxPoint x="570" y="1090" as="sourcePoint" />
            <mxPoint x="220" y="920" as="targetPoint" />
          </mxGeometry>
        </mxCell>
        <mxCell id="F1WxcwXqjHmNWAGrEvEr-58" value="" style="endArrow=classic;html=1;rounded=0;entryX=0.5;entryY=0;entryDx=0;entryDy=0;exitX=0.5;exitY=1;exitDx=0;exitDy=0;" parent="1" source="F1WxcwXqjHmNWAGrEvEr-54" edge="1">
          <mxGeometry width="50" height="50" relative="1" as="geometry">
            <mxPoint x="470" y="930" as="sourcePoint" />
            <mxPoint x="460" y="1040" as="targetPoint" />
          </mxGeometry>
        </mxCell>
        <mxCell id="F1WxcwXqjHmNWAGrEvEr-59" value="整合" style="text;html=1;align=center;verticalAlign=middle;whiteSpace=wrap;rounded=0;" parent="1" vertex="1">
          <mxGeometry x="480" y="1010" width="40" height="20" as="geometry" />
        </mxCell>
        <mxCell id="F1WxcwXqjHmNWAGrEvEr-60" value="" style="endArrow=classic;html=1;rounded=0;entryX=0.5;entryY=0;entryDx=0;entryDy=0;exitX=0.5;exitY=1;exitDx=0;exitDy=0;" parent="1" source="F1WxcwXqjHmNWAGrEvEr-53" target="F1WxcwXqjHmNWAGrEvEr-54" edge="1">
          <mxGeometry width="50" height="50" relative="1" as="geometry">
            <mxPoint x="470" y="690" as="sourcePoint" />
            <mxPoint x="470" y="730" as="targetPoint" />
          </mxGeometry>
        </mxCell>
        <mxCell id="F1WxcwXqjHmNWAGrEvEr-61" value="&lt;h1 style=&quot;margin-top: 0px;&quot;&gt;&lt;font style=&quot;font-size: 18px;&quot;&gt;アカウント作成&lt;/font&gt;&lt;/h1&gt;" style="text;html=1;whiteSpace=wrap;overflow=hidden;rounded=0;" parent="1" vertex="1">
          <mxGeometry x="40" y="40" width="180" height="40" as="geometry" />
        </mxCell>
        <mxCell id="F1WxcwXqjHmNWAGrEvEr-62" value="アカウント作成" style="rounded=1;whiteSpace=wrap;html=1;" parent="1" vertex="1">
          <mxGeometry x="400" y="1040" width="120" height="40" as="geometry" />
        </mxCell>
        <mxCell id="F1WxcwXqjHmNWAGrEvEr-63" value="パスワードの暗号化&lt;div&gt;電話番号の暗号化&lt;/div&gt;&lt;div&gt;&lt;br&gt;&lt;/div&gt;" style="text;html=1;whiteSpace=wrap;overflow=hidden;rounded=0;" parent="1" vertex="1">
          <mxGeometry x="560" y="1040" width="120" height="40" as="geometry" />
        </mxCell>
        <mxCell id="F1WxcwXqjHmNWAGrEvEr-64" value="複数回の入力ミスで&lt;div&gt;電話番号の一時停止&lt;br&gt;&lt;div&gt;&lt;br&gt;&lt;/div&gt;&lt;/div&gt;" style="text;html=1;whiteSpace=wrap;overflow=hidden;rounded=0;" parent="1" vertex="1">
          <mxGeometry x="560" y="880" width="120" height="40" as="geometry" />
        </mxCell>
        <mxCell id="F1WxcwXqjHmNWAGrEvEr-65" value="" style="ellipse;whiteSpace=wrap;html=1;aspect=fixed;fillColor=#000000;" parent="1" vertex="1">
          <mxGeometry x="1040" y="80" width="40" height="40" as="geometry" />
        </mxCell>
        <mxCell id="F1WxcwXqjHmNWAGrEvEr-66" value="アカウント情報入力" style="rounded=1;whiteSpace=wrap;html=1;" parent="1" vertex="1">
          <mxGeometry x="1000" y="160" width="120" height="40" as="geometry" />
        </mxCell>
        <mxCell id="F1WxcwXqjHmNWAGrEvEr-67" value="ログインチェック" style="rounded=1;whiteSpace=wrap;html=1;" parent="1" vertex="1">
          <mxGeometry x="1240" y="160" width="120" height="40" as="geometry" />
        </mxCell>
        <mxCell id="F1WxcwXqjHmNWAGrEvEr-68" value="" style="rhombus;whiteSpace=wrap;html=1;" parent="1" vertex="1">
          <mxGeometry x="1280" y="240" width="40" height="40" as="geometry" />
        </mxCell>
        <mxCell id="F1WxcwXqjHmNWAGrEvEr-69" value="" style="endArrow=classic;html=1;rounded=0;entryX=0;entryY=0.5;entryDx=0;entryDy=0;" parent="1" source="F1WxcwXqjHmNWAGrEvEr-66" target="F1WxcwXqjHmNWAGrEvEr-67" edge="1">
          <mxGeometry width="50" height="50" relative="1" as="geometry">
            <mxPoint x="1410" y="290" as="sourcePoint" />
            <mxPoint x="1460" y="240" as="targetPoint" />
          </mxGeometry>
        </mxCell>
        <mxCell id="F1WxcwXqjHmNWAGrEvEr-70" value="" style="endArrow=classic;html=1;rounded=0;entryX=0.5;entryY=0;entryDx=0;entryDy=0;exitX=0.5;exitY=1;exitDx=0;exitDy=0;" parent="1" source="F1WxcwXqjHmNWAGrEvEr-67" target="F1WxcwXqjHmNWAGrEvEr-68" edge="1">
          <mxGeometry width="50" height="50" relative="1" as="geometry">
            <mxPoint x="1010" y="190" as="sourcePoint" />
            <mxPoint x="1250" y="190" as="targetPoint" />
          </mxGeometry>
        </mxCell>
        <mxCell id="F1WxcwXqjHmNWAGrEvEr-71" value="否認" style="text;html=1;align=center;verticalAlign=middle;whiteSpace=wrap;rounded=0;" parent="1" vertex="1">
          <mxGeometry x="1080" y="240" width="40" height="20" as="geometry" />
        </mxCell>
        <mxCell id="F1WxcwXqjHmNWAGrEvEr-72" value="" style="edgeStyle=segmentEdgeStyle;endArrow=classic;html=1;curved=0;rounded=0;endSize=8;startSize=8;exitX=0;exitY=0.5;exitDx=0;exitDy=0;entryX=0.5;entryY=1;entryDx=0;entryDy=0;" parent="1" source="F1WxcwXqjHmNWAGrEvEr-68" target="F1WxcwXqjHmNWAGrEvEr-66" edge="1">
          <mxGeometry width="50" height="50" relative="1" as="geometry">
            <mxPoint x="1410" y="370" as="sourcePoint" />
            <mxPoint x="1460" y="320" as="targetPoint" />
          </mxGeometry>
        </mxCell>
        <mxCell id="F1WxcwXqjHmNWAGrEvEr-73" value="" style="endArrow=classic;html=1;rounded=0;entryX=0.5;entryY=0;entryDx=0;entryDy=0;exitX=0.5;exitY=1;exitDx=0;exitDy=0;" parent="1" source="F1WxcwXqjHmNWAGrEvEr-65" target="F1WxcwXqjHmNWAGrEvEr-66" edge="1">
          <mxGeometry width="50" height="50" relative="1" as="geometry">
            <mxPoint x="1430" y="210" as="sourcePoint" />
            <mxPoint x="1430" y="250" as="targetPoint" />
          </mxGeometry>
        </mxCell>
        <mxCell id="F1WxcwXqjHmNWAGrEvEr-74" value="トークン発行" style="rounded=1;whiteSpace=wrap;html=1;" parent="1" vertex="1">
          <mxGeometry x="1240" y="320" width="120" height="40" as="geometry" />
        </mxCell>
        <mxCell id="F1WxcwXqjHmNWAGrEvEr-76" value="" style="endArrow=classic;html=1;rounded=0;entryX=0.5;entryY=0;entryDx=0;entryDy=0;exitX=0.5;exitY=1;exitDx=0;exitDy=0;" parent="1" source="F1WxcwXqjHmNWAGrEvEr-68" target="F1WxcwXqjHmNWAGrEvEr-74" edge="1">
          <mxGeometry width="50" height="50" relative="1" as="geometry">
            <mxPoint x="1310" y="210" as="sourcePoint" />
            <mxPoint x="1310" y="250" as="targetPoint" />
          </mxGeometry>
        </mxCell>
        <mxCell id="F1WxcwXqjHmNWAGrEvEr-77" value="認証" style="text;html=1;align=center;verticalAlign=middle;whiteSpace=wrap;rounded=0;" parent="1" vertex="1">
          <mxGeometry x="1320" y="280" width="40" height="20" as="geometry" />
        </mxCell>
        <mxCell id="F1WxcwXqjHmNWAGrEvEr-110" value="&lt;h1 style=&quot;margin-top: 0px;&quot;&gt;&lt;font style=&quot;font-size: 18px;&quot;&gt;ログイン&lt;/font&gt;&lt;/h1&gt;" style="text;html=1;whiteSpace=wrap;overflow=hidden;rounded=0;" parent="1" vertex="1">
          <mxGeometry x="880" y="40" width="180" height="40" as="geometry" />
        </mxCell>
        <mxCell id="F1WxcwXqjHmNWAGrEvEr-114" value="&lt;h1 style=&quot;margin-top: 0px;&quot;&gt;&lt;font style=&quot;font-size: 18px;&quot;&gt;アカウント情報&lt;/font&gt;&lt;/h1&gt;&lt;p&gt;・ユーザID/アドレス&lt;/p&gt;&lt;p&gt;・パスワード&lt;/p&gt;" style="text;html=1;whiteSpace=wrap;overflow=hidden;rounded=0;" parent="1" vertex="1">
          <mxGeometry x="880" y="200" width="180" height="100" as="geometry" />
        </mxCell>
        <mxCell id="F1WxcwXqjHmNWAGrEvEr-115" value="ログインメールを&lt;div&gt;送信&lt;/div&gt;" style="rounded=1;whiteSpace=wrap;html=1;" parent="1" vertex="1">
          <mxGeometry x="1440" y="320" width="120" height="40" as="geometry" />
        </mxCell>
        <mxCell id="F1WxcwXqjHmNWAGrEvEr-116" value="" style="edgeStyle=elbowEdgeStyle;elbow=vertical;endArrow=classic;html=1;curved=0;rounded=0;endSize=8;startSize=8;entryX=0.5;entryY=0;entryDx=0;entryDy=0;" parent="1" target="F1WxcwXqjHmNWAGrEvEr-115" edge="1">
          <mxGeometry width="50" height="50" relative="1" as="geometry">
            <mxPoint x="1300" y="280" as="sourcePoint" />
            <mxPoint x="1070" y="410" as="targetPoint" />
          </mxGeometry>
        </mxCell>
        <mxCell id="F1WxcwXqjHmNWAGrEvEr-122" value="トークン受け取り" style="rounded=1;whiteSpace=wrap;html=1;" parent="1" vertex="1">
          <mxGeometry x="1000" y="320" width="120" height="40" as="geometry" />
        </mxCell>
        <mxCell id="F1WxcwXqjHmNWAGrEvEr-123" value="" style="endArrow=classic;html=1;rounded=0;exitX=0;exitY=0.5;exitDx=0;exitDy=0;" parent="1" source="F1WxcwXqjHmNWAGrEvEr-74" target="F1WxcwXqjHmNWAGrEvEr-122" edge="1">
          <mxGeometry width="50" height="50" relative="1" as="geometry">
            <mxPoint x="1130" y="190" as="sourcePoint" />
            <mxPoint x="1250" y="190" as="targetPoint" />
          </mxGeometry>
        </mxCell>
        <mxCell id="F1WxcwXqjHmNWAGrEvEr-124" value="" style="ellipse;whiteSpace=wrap;html=1;aspect=fixed;fillColor=#000000;" parent="1" vertex="1">
          <mxGeometry x="1040" y="520" width="40" height="40" as="geometry" />
        </mxCell>
        <mxCell id="F1WxcwXqjHmNWAGrEvEr-125" value="ログアウト" style="rounded=1;whiteSpace=wrap;html=1;" parent="1" vertex="1">
          <mxGeometry x="1000" y="600" width="120" height="40" as="geometry" />
        </mxCell>
        <mxCell id="F1WxcwXqjHmNWAGrEvEr-126" value="ログアウト処理" style="rounded=1;whiteSpace=wrap;html=1;" parent="1" vertex="1">
          <mxGeometry x="1240" y="600" width="120" height="40" as="geometry" />
        </mxCell>
        <mxCell id="F1WxcwXqjHmNWAGrEvEr-128" value="" style="endArrow=classic;html=1;rounded=0;entryX=0;entryY=0.5;entryDx=0;entryDy=0;" parent="1" source="F1WxcwXqjHmNWAGrEvEr-125" target="F1WxcwXqjHmNWAGrEvEr-126" edge="1">
          <mxGeometry width="50" height="50" relative="1" as="geometry">
            <mxPoint x="1410" y="730" as="sourcePoint" />
            <mxPoint x="1460" y="680" as="targetPoint" />
          </mxGeometry>
        </mxCell>
        <mxCell id="F1WxcwXqjHmNWAGrEvEr-129" value="" style="endArrow=classic;html=1;rounded=0;entryX=0.5;entryY=0;entryDx=0;entryDy=0;exitX=0.5;exitY=1;exitDx=0;exitDy=0;" parent="1" source="F1WxcwXqjHmNWAGrEvEr-126" edge="1">
          <mxGeometry width="50" height="50" relative="1" as="geometry">
            <mxPoint x="1010" y="630" as="sourcePoint" />
            <mxPoint x="1300" y="680" as="targetPoint" />
          </mxGeometry>
        </mxCell>
        <mxCell id="F1WxcwXqjHmNWAGrEvEr-132" value="" style="endArrow=classic;html=1;rounded=0;entryX=0.5;entryY=0;entryDx=0;entryDy=0;exitX=0.5;exitY=1;exitDx=0;exitDy=0;" parent="1" source="F1WxcwXqjHmNWAGrEvEr-124" target="F1WxcwXqjHmNWAGrEvEr-125" edge="1">
          <mxGeometry width="50" height="50" relative="1" as="geometry">
            <mxPoint x="1430" y="650" as="sourcePoint" />
            <mxPoint x="1430" y="690" as="targetPoint" />
          </mxGeometry>
        </mxCell>
        <mxCell id="F1WxcwXqjHmNWAGrEvEr-133" value="トークン削除" style="rounded=1;whiteSpace=wrap;html=1;" parent="1" vertex="1">
          <mxGeometry x="1240" y="680" width="120" height="40" as="geometry" />
        </mxCell>
        <mxCell id="F1WxcwXqjHmNWAGrEvEr-136" value="&lt;h1 style=&quot;margin-top: 0px;&quot;&gt;&lt;font style=&quot;font-size: 18px;&quot;&gt;ログアウト&lt;/font&gt;&lt;/h1&gt;" style="text;html=1;whiteSpace=wrap;overflow=hidden;rounded=0;" parent="1" vertex="1">
          <mxGeometry x="880" y="480" width="180" height="40" as="geometry" />
        </mxCell>
        <mxCell id="F1WxcwXqjHmNWAGrEvEr-141" value="" style="ellipse;whiteSpace=wrap;html=1;aspect=fixed;fillColor=#000000;" parent="1" vertex="1">
          <mxGeometry x="1880" y="80" width="40" height="40" as="geometry" />
        </mxCell>
        <mxCell id="F1WxcwXqjHmNWAGrEvEr-142" value="記事投稿ボタン" style="rounded=1;whiteSpace=wrap;html=1;" parent="1" vertex="1">
          <mxGeometry x="1840" y="160" width="120" height="40" as="geometry" />
        </mxCell>
        <mxCell id="F1WxcwXqjHmNWAGrEvEr-143" value="記事の入力" style="rounded=1;whiteSpace=wrap;html=1;" parent="1" vertex="1">
          <mxGeometry x="1840" y="240" width="120" height="40" as="geometry" />
        </mxCell>
        <mxCell id="F1WxcwXqjHmNWAGrEvEr-145" value="" style="endArrow=classic;html=1;rounded=0;exitX=0.5;exitY=1;exitDx=0;exitDy=0;" parent="1" source="F1WxcwXqjHmNWAGrEvEr-142" target="F1WxcwXqjHmNWAGrEvEr-143" edge="1">
          <mxGeometry width="50" height="50" relative="1" as="geometry">
            <mxPoint x="2250" y="290" as="sourcePoint" />
            <mxPoint x="1901.08" y="233" as="targetPoint" />
          </mxGeometry>
        </mxCell>
        <mxCell id="F1WxcwXqjHmNWAGrEvEr-149" value="" style="endArrow=classic;html=1;rounded=0;entryX=0.5;entryY=0;entryDx=0;entryDy=0;exitX=0.5;exitY=1;exitDx=0;exitDy=0;" parent="1" source="F1WxcwXqjHmNWAGrEvEr-141" target="F1WxcwXqjHmNWAGrEvEr-142" edge="1">
          <mxGeometry width="50" height="50" relative="1" as="geometry">
            <mxPoint x="2270" y="210" as="sourcePoint" />
            <mxPoint x="2270" y="250" as="targetPoint" />
          </mxGeometry>
        </mxCell>
        <mxCell id="F1WxcwXqjHmNWAGrEvEr-153" value="&lt;h1 style=&quot;margin-top: 0px;&quot;&gt;&lt;font style=&quot;font-size: 18px;&quot;&gt;記事入力&lt;/font&gt;&lt;/h1&gt;" style="text;html=1;whiteSpace=wrap;overflow=hidden;rounded=0;" parent="1" vertex="1">
          <mxGeometry x="1720" y="40" width="180" height="40" as="geometry" />
        </mxCell>
        <mxCell id="F1WxcwXqjHmNWAGrEvEr-160" value="" style="endArrow=classic;html=1;rounded=0;exitX=0.5;exitY=1;exitDx=0;exitDy=0;entryX=0.5;entryY=0;entryDx=0;entryDy=0;" parent="1" source="F1WxcwXqjHmNWAGrEvEr-143" target="F1WxcwXqjHmNWAGrEvEr-192" edge="1">
          <mxGeometry width="50" height="50" relative="1" as="geometry">
            <mxPoint x="1910" y="210" as="sourcePoint" />
            <mxPoint x="1940" y="310" as="targetPoint" />
          </mxGeometry>
        </mxCell>
        <mxCell id="F1WxcwXqjHmNWAGrEvEr-161" value="主タグ一覧の取得" style="rounded=1;whiteSpace=wrap;html=1;" parent="1" vertex="1">
          <mxGeometry x="2080" y="240" width="120" height="40" as="geometry" />
        </mxCell>
        <mxCell id="F1WxcwXqjHmNWAGrEvEr-162" value="" style="endArrow=classic;html=1;rounded=0;exitX=0;exitY=0.5;exitDx=0;exitDy=0;entryX=1;entryY=0.5;entryDx=0;entryDy=0;" parent="1" source="F1WxcwXqjHmNWAGrEvEr-161" edge="1">
          <mxGeometry width="50" height="50" relative="1" as="geometry">
            <mxPoint x="1910" y="210" as="sourcePoint" />
            <mxPoint x="1960" y="260" as="targetPoint" />
          </mxGeometry>
        </mxCell>
        <mxCell id="F1WxcwXqjHmNWAGrEvEr-166" value="投稿ボタン" style="rounded=1;whiteSpace=wrap;html=1;" parent="1" vertex="1">
          <mxGeometry x="1840" y="400" width="120" height="40" as="geometry" />
        </mxCell>
        <mxCell id="F1WxcwXqjHmNWAGrEvEr-168" value="" style="endArrow=classic;html=1;rounded=0;exitX=1;exitY=0.5;exitDx=0;exitDy=0;entryX=0;entryY=0.5;entryDx=0;entryDy=0;" parent="1" source="F1WxcwXqjHmNWAGrEvEr-166" target="F1WxcwXqjHmNWAGrEvEr-169" edge="1">
          <mxGeometry width="50" height="50" relative="1" as="geometry">
            <mxPoint x="2090" y="270" as="sourcePoint" />
            <mxPoint x="2080" y="420" as="targetPoint" />
          </mxGeometry>
        </mxCell>
        <mxCell id="F1WxcwXqjHmNWAGrEvEr-169" value="DB登録" style="rounded=1;whiteSpace=wrap;html=1;" parent="1" vertex="1">
          <mxGeometry x="2080" y="400" width="120" height="40" as="geometry" />
        </mxCell>
        <mxCell id="F1WxcwXqjHmNWAGrEvEr-176" value="" style="ellipse;whiteSpace=wrap;html=1;aspect=fixed;fillColor=#000000;" parent="1" vertex="1">
          <mxGeometry x="1880" y="520" width="40" height="40" as="geometry" />
        </mxCell>
        <mxCell id="F1WxcwXqjHmNWAGrEvEr-177" value="記事の閲覧" style="rounded=1;whiteSpace=wrap;html=1;" parent="1" vertex="1">
          <mxGeometry x="1840" y="600" width="120" height="40" as="geometry" />
        </mxCell>
        <mxCell id="F1WxcwXqjHmNWAGrEvEr-178" value="コミュニティノート追加ボタン" style="rounded=1;whiteSpace=wrap;html=1;" parent="1" vertex="1">
          <mxGeometry x="1840" y="680" width="120" height="40" as="geometry" />
        </mxCell>
        <mxCell id="F1WxcwXqjHmNWAGrEvEr-179" value="" style="endArrow=classic;html=1;rounded=0;exitX=0.5;exitY=1;exitDx=0;exitDy=0;" parent="1" source="F1WxcwXqjHmNWAGrEvEr-177" target="F1WxcwXqjHmNWAGrEvEr-178" edge="1">
          <mxGeometry width="50" height="50" relative="1" as="geometry">
            <mxPoint x="2250" y="730" as="sourcePoint" />
            <mxPoint x="1901.08" y="673" as="targetPoint" />
          </mxGeometry>
        </mxCell>
        <mxCell id="F1WxcwXqjHmNWAGrEvEr-180" value="" style="endArrow=classic;html=1;rounded=0;entryX=0.5;entryY=0;entryDx=0;entryDy=0;exitX=0.5;exitY=1;exitDx=0;exitDy=0;" parent="1" source="F1WxcwXqjHmNWAGrEvEr-176" target="F1WxcwXqjHmNWAGrEvEr-177" edge="1">
          <mxGeometry width="50" height="50" relative="1" as="geometry">
            <mxPoint x="2270" y="650" as="sourcePoint" />
            <mxPoint x="2270" y="690" as="targetPoint" />
          </mxGeometry>
        </mxCell>
        <mxCell id="F1WxcwXqjHmNWAGrEvEr-181" value="&lt;h1 style=&quot;margin-top: 0px;&quot;&gt;&lt;font style=&quot;font-size: 18px;&quot;&gt;コミュニティノート入力&lt;/font&gt;&lt;/h1&gt;" style="text;html=1;whiteSpace=wrap;overflow=hidden;rounded=0;" parent="1" vertex="1">
          <mxGeometry x="1720" y="480" width="200" height="40" as="geometry" />
        </mxCell>
        <mxCell id="F1WxcwXqjHmNWAGrEvEr-182" value="コミュニティノート入力" style="rounded=1;whiteSpace=wrap;html=1;" parent="1" vertex="1">
          <mxGeometry x="1840" y="760" width="120" height="40" as="geometry" />
        </mxCell>
        <mxCell id="F1WxcwXqjHmNWAGrEvEr-183" value="" style="endArrow=classic;html=1;rounded=0;exitX=0.5;exitY=1;exitDx=0;exitDy=0;" parent="1" source="F1WxcwXqjHmNWAGrEvEr-178" target="F1WxcwXqjHmNWAGrEvEr-182" edge="1">
          <mxGeometry width="50" height="50" relative="1" as="geometry">
            <mxPoint x="1910" y="650" as="sourcePoint" />
            <mxPoint x="1910" y="690" as="targetPoint" />
          </mxGeometry>
        </mxCell>
        <mxCell id="F1WxcwXqjHmNWAGrEvEr-187" value="" style="endArrow=classic;html=1;rounded=0;exitX=0.5;exitY=1;exitDx=0;exitDy=0;entryX=0.5;entryY=0;entryDx=0;entryDy=0;" parent="1" source="F1WxcwXqjHmNWAGrEvEr-182" edge="1">
          <mxGeometry width="50" height="50" relative="1" as="geometry">
            <mxPoint x="1910" y="730" as="sourcePoint" />
            <mxPoint x="1900" y="840" as="targetPoint" />
          </mxGeometry>
        </mxCell>
        <mxCell id="F1WxcwXqjHmNWAGrEvEr-188" value="投稿ボタン" style="rounded=1;whiteSpace=wrap;html=1;" parent="1" vertex="1">
          <mxGeometry x="1840" y="920" width="120" height="40" as="geometry" />
        </mxCell>
        <mxCell id="F1WxcwXqjHmNWAGrEvEr-189" value="" style="endArrow=classic;html=1;rounded=0;exitX=0.5;exitY=1;exitDx=0;exitDy=0;entryX=0.5;entryY=0;entryDx=0;entryDy=0;" parent="1" target="F1WxcwXqjHmNWAGrEvEr-188" edge="1">
          <mxGeometry width="50" height="50" relative="1" as="geometry">
            <mxPoint x="1900" y="880" as="sourcePoint" />
            <mxPoint x="1910" y="850" as="targetPoint" />
          </mxGeometry>
        </mxCell>
        <mxCell id="F1WxcwXqjHmNWAGrEvEr-190" value="" style="endArrow=classic;html=1;rounded=0;exitX=1;exitY=0.5;exitDx=0;exitDy=0;" parent="1" source="F1WxcwXqjHmNWAGrEvEr-188" edge="1">
          <mxGeometry width="50" height="50" relative="1" as="geometry">
            <mxPoint x="2090" y="790" as="sourcePoint" />
            <mxPoint x="2080" y="940" as="targetPoint" />
          </mxGeometry>
        </mxCell>
        <mxCell id="F1WxcwXqjHmNWAGrEvEr-191" value="DB登録" style="rounded=1;whiteSpace=wrap;html=1;" parent="1" vertex="1">
          <mxGeometry x="2080" y="920" width="120" height="40" as="geometry" />
        </mxCell>
        <mxCell id="F1WxcwXqjHmNWAGrEvEr-192" value="" style="rhombus;whiteSpace=wrap;html=1;" parent="1" vertex="1">
          <mxGeometry x="1880" y="320" width="40" height="40" as="geometry" />
        </mxCell>
        <mxCell id="F1WxcwXqjHmNWAGrEvEr-195" value="" style="edgeStyle=elbowEdgeStyle;elbow=horizontal;endArrow=classic;html=1;curved=0;rounded=0;endSize=8;startSize=8;exitX=1;exitY=0.5;exitDx=0;exitDy=0;entryX=1;entryY=0.5;entryDx=0;entryDy=0;" parent="1" source="F1WxcwXqjHmNWAGrEvEr-192" target="F1WxcwXqjHmNWAGrEvEr-143" edge="1">
          <mxGeometry width="50" height="50" relative="1" as="geometry">
            <mxPoint x="2140" y="440" as="sourcePoint" />
            <mxPoint x="2190" y="390" as="targetPoint" />
            <Array as="points">
              <mxPoint x="1980" y="300" />
            </Array>
          </mxGeometry>
        </mxCell>
        <mxCell id="F1WxcwXqjHmNWAGrEvEr-196" value="下書き保存" style="text;html=1;align=center;verticalAlign=middle;whiteSpace=wrap;rounded=0;" parent="1" vertex="1">
          <mxGeometry x="2000" y="290" width="70" height="20" as="geometry" />
        </mxCell>
        <mxCell id="F1WxcwXqjHmNWAGrEvEr-197" value="" style="endArrow=classic;html=1;rounded=0;exitX=0.5;exitY=1;exitDx=0;exitDy=0;entryX=0.5;entryY=0;entryDx=0;entryDy=0;" parent="1" source="F1WxcwXqjHmNWAGrEvEr-192" target="F1WxcwXqjHmNWAGrEvEr-166" edge="1">
          <mxGeometry width="50" height="50" relative="1" as="geometry">
            <mxPoint x="1910" y="290" as="sourcePoint" />
            <mxPoint x="1910" y="330" as="targetPoint" />
          </mxGeometry>
        </mxCell>
        <mxCell id="F1WxcwXqjHmNWAGrEvEr-198" value="&lt;h1 style=&quot;margin-top: 0px;&quot;&gt;&lt;span style=&quot;font-size: 18px;&quot;&gt;記事内容&lt;/span&gt;&lt;/h1&gt;&lt;p&gt;・文字/URL&lt;/p&gt;&lt;p&gt;・画像/動画&lt;/p&gt;&lt;p&gt;・主タグ/副タグ&lt;/p&gt;" style="text;html=1;whiteSpace=wrap;overflow=hidden;rounded=0;" parent="1" vertex="1">
          <mxGeometry x="1720" y="280" width="180" height="120" as="geometry" />
        </mxCell>
        <mxCell id="F1WxcwXqjHmNWAGrEvEr-213" value="" style="rhombus;whiteSpace=wrap;html=1;" parent="1" vertex="1">
          <mxGeometry x="1880" y="840" width="40" height="40" as="geometry" />
        </mxCell>
        <mxCell id="F1WxcwXqjHmNWAGrEvEr-214" value="" style="edgeStyle=elbowEdgeStyle;elbow=horizontal;endArrow=classic;html=1;curved=0;rounded=0;endSize=8;startSize=8;exitX=1;exitY=0.5;exitDx=0;exitDy=0;entryX=1;entryY=0.5;entryDx=0;entryDy=0;" parent="1" source="F1WxcwXqjHmNWAGrEvEr-213" edge="1">
          <mxGeometry width="50" height="50" relative="1" as="geometry">
            <mxPoint x="2140" y="960" as="sourcePoint" />
            <mxPoint x="1960" y="780" as="targetPoint" />
            <Array as="points">
              <mxPoint x="1980" y="820" />
            </Array>
          </mxGeometry>
        </mxCell>
        <mxCell id="F1WxcwXqjHmNWAGrEvEr-215" value="下書き保存" style="text;html=1;align=center;verticalAlign=middle;whiteSpace=wrap;rounded=0;" parent="1" vertex="1">
          <mxGeometry x="2000" y="810" width="70" height="20" as="geometry" />
        </mxCell>
        <mxCell id="F1WxcwXqjHmNWAGrEvEr-216" value="" style="ellipse;whiteSpace=wrap;html=1;aspect=fixed;fillColor=#000000;" parent="1" vertex="1">
          <mxGeometry x="2680" y="80" width="40" height="40" as="geometry" />
        </mxCell>
        <mxCell id="F1WxcwXqjHmNWAGrEvEr-217" value="記事の閲覧" style="rounded=1;whiteSpace=wrap;html=1;" parent="1" vertex="1">
          <mxGeometry x="2640" y="160" width="120" height="40" as="geometry" />
        </mxCell>
        <mxCell id="F1WxcwXqjHmNWAGrEvEr-219" value="" style="endArrow=classic;html=1;rounded=0;exitX=0.5;exitY=1;exitDx=0;exitDy=0;" parent="1" source="F1WxcwXqjHmNWAGrEvEr-217" edge="1">
          <mxGeometry width="50" height="50" relative="1" as="geometry">
            <mxPoint x="3050" y="290" as="sourcePoint" />
            <mxPoint x="2700" y="240" as="targetPoint" />
          </mxGeometry>
        </mxCell>
        <mxCell id="F1WxcwXqjHmNWAGrEvEr-220" value="" style="endArrow=classic;html=1;rounded=0;entryX=0.5;entryY=0;entryDx=0;entryDy=0;exitX=0.5;exitY=1;exitDx=0;exitDy=0;" parent="1" source="F1WxcwXqjHmNWAGrEvEr-216" target="F1WxcwXqjHmNWAGrEvEr-217" edge="1">
          <mxGeometry width="50" height="50" relative="1" as="geometry">
            <mxPoint x="3070" y="210" as="sourcePoint" />
            <mxPoint x="3070" y="250" as="targetPoint" />
          </mxGeometry>
        </mxCell>
        <mxCell id="F1WxcwXqjHmNWAGrEvEr-221" value="&lt;h1 style=&quot;margin-top: 0px;&quot;&gt;&lt;font style=&quot;font-size: 18px;&quot;&gt;記事の閲覧&lt;/font&gt;&lt;/h1&gt;" style="text;html=1;whiteSpace=wrap;overflow=hidden;rounded=0;" parent="1" vertex="1">
          <mxGeometry x="2520" y="40" width="180" height="40" as="geometry" />
        </mxCell>
        <mxCell id="F1WxcwXqjHmNWAGrEvEr-233" value="" style="shape=partialRectangle;whiteSpace=wrap;html=1;left=0;right=0;fillColor=none;" parent="1" vertex="1">
          <mxGeometry x="2560" y="240" width="280" height="160" as="geometry" />
        </mxCell>
        <mxCell id="F1WxcwXqjHmNWAGrEvEr-234" value="高評価" style="rounded=1;whiteSpace=wrap;html=1;" parent="1" vertex="1">
          <mxGeometry x="2560" y="270" width="120" height="40" as="geometry" />
        </mxCell>
        <mxCell id="F1WxcwXqjHmNWAGrEvEr-235" value="ブックマーク" style="rounded=1;whiteSpace=wrap;html=1;" parent="1" vertex="1">
          <mxGeometry x="2720" y="330" width="120" height="40" as="geometry" />
        </mxCell>
        <mxCell id="F1WxcwXqjHmNWAGrEvEr-236" value="RT" style="rounded=1;whiteSpace=wrap;html=1;" parent="1" vertex="1">
          <mxGeometry x="2560" y="330" width="120" height="40" as="geometry" />
        </mxCell>
        <mxCell id="F1WxcwXqjHmNWAGrEvEr-237" value="低評価" style="rounded=1;whiteSpace=wrap;html=1;" parent="1" vertex="1">
          <mxGeometry x="2720" y="270" width="120" height="40" as="geometry" />
        </mxCell>
        <mxCell id="F1WxcwXqjHmNWAGrEvEr-238" value="" style="edgeStyle=elbowEdgeStyle;elbow=vertical;endArrow=classic;html=1;curved=0;rounded=0;endSize=8;startSize=8;entryX=0.5;entryY=0;entryDx=0;entryDy=0;" parent="1" target="F1WxcwXqjHmNWAGrEvEr-239" edge="1">
          <mxGeometry width="50" height="50" relative="1" as="geometry">
            <mxPoint x="2695" y="400" as="sourcePoint" />
            <mxPoint x="3060" y="440" as="targetPoint" />
          </mxGeometry>
        </mxCell>
        <mxCell id="F1WxcwXqjHmNWAGrEvEr-239" value="DB更新" style="rounded=1;whiteSpace=wrap;html=1;" parent="1" vertex="1">
          <mxGeometry x="2960" y="440" width="120" height="40" as="geometry" />
        </mxCell>
        <mxCell id="F1WxcwXqjHmNWAGrEvEr-240" value="" style="ellipse;whiteSpace=wrap;html=1;aspect=fixed;fillColor=#000000;" parent="1" vertex="1">
          <mxGeometry x="2680" y="560" width="40" height="40" as="geometry" />
        </mxCell>
        <mxCell id="F1WxcwXqjHmNWAGrEvEr-241" value="記事の閲覧" style="rounded=1;whiteSpace=wrap;html=1;" parent="1" vertex="1">
          <mxGeometry x="2640" y="640" width="120" height="40" as="geometry" />
        </mxCell>
        <mxCell id="F1WxcwXqjHmNWAGrEvEr-242" value="" style="endArrow=classic;html=1;rounded=0;exitX=0.5;exitY=1;exitDx=0;exitDy=0;" parent="1" source="F1WxcwXqjHmNWAGrEvEr-241" edge="1">
          <mxGeometry width="50" height="50" relative="1" as="geometry">
            <mxPoint x="3050" y="770" as="sourcePoint" />
            <mxPoint x="2700" y="720" as="targetPoint" />
          </mxGeometry>
        </mxCell>
        <mxCell id="F1WxcwXqjHmNWAGrEvEr-243" value="" style="endArrow=classic;html=1;rounded=0;entryX=0.5;entryY=0;entryDx=0;entryDy=0;exitX=0.5;exitY=1;exitDx=0;exitDy=0;" parent="1" source="F1WxcwXqjHmNWAGrEvEr-240" target="F1WxcwXqjHmNWAGrEvEr-241" edge="1">
          <mxGeometry width="50" height="50" relative="1" as="geometry">
            <mxPoint x="3070" y="690" as="sourcePoint" />
            <mxPoint x="3070" y="730" as="targetPoint" />
          </mxGeometry>
        </mxCell>
        <mxCell id="F1WxcwXqjHmNWAGrEvEr-244" value="&lt;h1 style=&quot;margin-top: 0px;&quot;&gt;&lt;font style=&quot;font-size: 18px;&quot;&gt;コミュニティノート閲覧&lt;/font&gt;&lt;/h1&gt;" style="text;html=1;whiteSpace=wrap;overflow=hidden;rounded=0;" parent="1" vertex="1">
          <mxGeometry x="2520" y="520" width="200" height="40" as="geometry" />
        </mxCell>
        <mxCell id="F1WxcwXqjHmNWAGrEvEr-245" value="" style="shape=partialRectangle;whiteSpace=wrap;html=1;left=0;right=0;fillColor=none;" parent="1" vertex="1">
          <mxGeometry x="2560" y="800" width="280" height="120" as="geometry" />
        </mxCell>
        <mxCell id="F1WxcwXqjHmNWAGrEvEr-246" value="高評価" style="rounded=1;whiteSpace=wrap;html=1;" parent="1" vertex="1">
          <mxGeometry x="2560" y="840" width="120" height="40" as="geometry" />
        </mxCell>
        <mxCell id="F1WxcwXqjHmNWAGrEvEr-249" value="低評価" style="rounded=1;whiteSpace=wrap;html=1;" parent="1" vertex="1">
          <mxGeometry x="2720" y="840" width="120" height="40" as="geometry" />
        </mxCell>
        <mxCell id="F1WxcwXqjHmNWAGrEvEr-250" value="" style="edgeStyle=elbowEdgeStyle;elbow=vertical;endArrow=classic;html=1;curved=0;rounded=0;endSize=8;startSize=8;entryX=0.5;entryY=0;entryDx=0;entryDy=0;" parent="1" target="F1WxcwXqjHmNWAGrEvEr-251" edge="1">
          <mxGeometry width="50" height="50" relative="1" as="geometry">
            <mxPoint x="2700" y="920" as="sourcePoint" />
            <mxPoint x="3065" y="960" as="targetPoint" />
          </mxGeometry>
        </mxCell>
        <mxCell id="F1WxcwXqjHmNWAGrEvEr-251" value="DB更新" style="rounded=1;whiteSpace=wrap;html=1;" parent="1" vertex="1">
          <mxGeometry x="2965" y="960" width="120" height="40" as="geometry" />
        </mxCell>
        <mxCell id="F1WxcwXqjHmNWAGrEvEr-252" value="コミュニティノート閲覧" style="rounded=1;whiteSpace=wrap;html=1;" parent="1" vertex="1">
          <mxGeometry x="2640" y="720" width="120" height="40" as="geometry" />
        </mxCell>
        <mxCell id="F1WxcwXqjHmNWAGrEvEr-253" value="" style="endArrow=classic;html=1;rounded=0;exitX=0.5;exitY=1;exitDx=0;exitDy=0;" parent="1" source="F1WxcwXqjHmNWAGrEvEr-252" edge="1">
          <mxGeometry width="50" height="50" relative="1" as="geometry">
            <mxPoint x="2710" y="690" as="sourcePoint" />
            <mxPoint x="2700" y="800" as="targetPoint" />
          </mxGeometry>
        </mxCell>
        <mxCell id="F1WxcwXqjHmNWAGrEvEr-254" value="" style="ellipse;whiteSpace=wrap;html=1;aspect=fixed;fillColor=#000000;" parent="1" vertex="1">
          <mxGeometry x="3520" y="80" width="40" height="40" as="geometry" />
        </mxCell>
        <mxCell id="F1WxcwXqjHmNWAGrEvEr-255" value="つぶやき投稿ボタン" style="rounded=1;whiteSpace=wrap;html=1;" parent="1" vertex="1">
          <mxGeometry x="3480" y="160" width="120" height="40" as="geometry" />
        </mxCell>
        <mxCell id="F1WxcwXqjHmNWAGrEvEr-256" value="" style="endArrow=classic;html=1;rounded=0;entryX=0.5;entryY=0;entryDx=0;entryDy=0;exitX=0.5;exitY=1;exitDx=0;exitDy=0;" parent="1" source="F1WxcwXqjHmNWAGrEvEr-254" target="F1WxcwXqjHmNWAGrEvEr-255" edge="1">
          <mxGeometry width="50" height="50" relative="1" as="geometry">
            <mxPoint x="3910" y="210" as="sourcePoint" />
            <mxPoint x="3910" y="250" as="targetPoint" />
          </mxGeometry>
        </mxCell>
        <mxCell id="F1WxcwXqjHmNWAGrEvEr-257" value="&lt;h1 style=&quot;margin-top: 0px;&quot;&gt;&lt;font style=&quot;font-size: 18px;&quot;&gt;つぶやき入力&lt;/font&gt;&lt;/h1&gt;" style="text;html=1;whiteSpace=wrap;overflow=hidden;rounded=0;" parent="1" vertex="1">
          <mxGeometry x="3360" y="40" width="180" height="40" as="geometry" />
        </mxCell>
        <mxCell id="7OgDLUYvquiYCTceMPZs-1" value="つぶやきの入力" style="rounded=1;whiteSpace=wrap;html=1;" vertex="1" parent="1">
          <mxGeometry x="3480" y="240" width="120" height="40" as="geometry" />
        </mxCell>
        <mxCell id="7OgDLUYvquiYCTceMPZs-2" value="" style="endArrow=classic;html=1;rounded=0;exitX=0.5;exitY=1;exitDx=0;exitDy=0;" edge="1" parent="1" target="7OgDLUYvquiYCTceMPZs-1">
          <mxGeometry width="50" height="50" relative="1" as="geometry">
            <mxPoint x="3540" y="200" as="sourcePoint" />
            <mxPoint x="3541.08" y="233" as="targetPoint" />
          </mxGeometry>
        </mxCell>
        <mxCell id="7OgDLUYvquiYCTceMPZs-3" value="" style="endArrow=classic;html=1;rounded=0;exitX=0.5;exitY=1;exitDx=0;exitDy=0;entryX=0.5;entryY=0;entryDx=0;entryDy=0;" edge="1" parent="1" source="7OgDLUYvquiYCTceMPZs-1" target="7OgDLUYvquiYCTceMPZs-9">
          <mxGeometry width="50" height="50" relative="1" as="geometry">
            <mxPoint x="3550" y="210" as="sourcePoint" />
            <mxPoint x="3580" y="310" as="targetPoint" />
          </mxGeometry>
        </mxCell>
        <mxCell id="7OgDLUYvquiYCTceMPZs-6" value="投稿ボタン" style="rounded=1;whiteSpace=wrap;html=1;" vertex="1" parent="1">
          <mxGeometry x="3480" y="400" width="120" height="40" as="geometry" />
        </mxCell>
        <mxCell id="7OgDLUYvquiYCTceMPZs-7" value="" style="endArrow=classic;html=1;rounded=0;exitX=1;exitY=0.5;exitDx=0;exitDy=0;entryX=0;entryY=0.5;entryDx=0;entryDy=0;" edge="1" parent="1" source="7OgDLUYvquiYCTceMPZs-6" target="7OgDLUYvquiYCTceMPZs-8">
          <mxGeometry width="50" height="50" relative="1" as="geometry">
            <mxPoint x="3730" y="270" as="sourcePoint" />
            <mxPoint x="3720" y="420" as="targetPoint" />
          </mxGeometry>
        </mxCell>
        <mxCell id="7OgDLUYvquiYCTceMPZs-8" value="DB登録" style="rounded=1;whiteSpace=wrap;html=1;" vertex="1" parent="1">
          <mxGeometry x="3720" y="400" width="120" height="40" as="geometry" />
        </mxCell>
        <mxCell id="7OgDLUYvquiYCTceMPZs-9" value="" style="rhombus;whiteSpace=wrap;html=1;" vertex="1" parent="1">
          <mxGeometry x="3520" y="320" width="40" height="40" as="geometry" />
        </mxCell>
        <mxCell id="7OgDLUYvquiYCTceMPZs-10" value="" style="edgeStyle=elbowEdgeStyle;elbow=horizontal;endArrow=classic;html=1;curved=0;rounded=0;endSize=8;startSize=8;exitX=1;exitY=0.5;exitDx=0;exitDy=0;entryX=1;entryY=0.5;entryDx=0;entryDy=0;" edge="1" parent="1" source="7OgDLUYvquiYCTceMPZs-9" target="7OgDLUYvquiYCTceMPZs-1">
          <mxGeometry width="50" height="50" relative="1" as="geometry">
            <mxPoint x="3780" y="440" as="sourcePoint" />
            <mxPoint x="3830" y="390" as="targetPoint" />
            <Array as="points">
              <mxPoint x="3620" y="300" />
            </Array>
          </mxGeometry>
        </mxCell>
        <mxCell id="7OgDLUYvquiYCTceMPZs-11" value="下書き保存" style="text;html=1;align=center;verticalAlign=middle;whiteSpace=wrap;rounded=0;" vertex="1" parent="1">
          <mxGeometry x="3640" y="290" width="70" height="20" as="geometry" />
        </mxCell>
        <mxCell id="7OgDLUYvquiYCTceMPZs-12" value="" style="endArrow=classic;html=1;rounded=0;exitX=0.5;exitY=1;exitDx=0;exitDy=0;entryX=0.5;entryY=0;entryDx=0;entryDy=0;" edge="1" parent="1" source="7OgDLUYvquiYCTceMPZs-9" target="7OgDLUYvquiYCTceMPZs-6">
          <mxGeometry width="50" height="50" relative="1" as="geometry">
            <mxPoint x="3550" y="290" as="sourcePoint" />
            <mxPoint x="3550" y="330" as="targetPoint" />
          </mxGeometry>
        </mxCell>
        <mxCell id="7OgDLUYvquiYCTceMPZs-13" value="" style="ellipse;whiteSpace=wrap;html=1;aspect=fixed;fillColor=#000000;" vertex="1" parent="1">
          <mxGeometry x="4360" y="600" width="40" height="40" as="geometry" />
        </mxCell>
        <mxCell id="7OgDLUYvquiYCTceMPZs-14" value="記事の閲覧" style="rounded=1;whiteSpace=wrap;html=1;" vertex="1" parent="1">
          <mxGeometry x="4320" y="680" width="120" height="40" as="geometry" />
        </mxCell>
        <mxCell id="7OgDLUYvquiYCTceMPZs-15" value="" style="endArrow=classic;html=1;rounded=0;exitX=0.5;exitY=1;exitDx=0;exitDy=0;" edge="1" parent="1" source="7OgDLUYvquiYCTceMPZs-14">
          <mxGeometry width="50" height="50" relative="1" as="geometry">
            <mxPoint x="4730" y="810" as="sourcePoint" />
            <mxPoint x="4380" y="760" as="targetPoint" />
          </mxGeometry>
        </mxCell>
        <mxCell id="7OgDLUYvquiYCTceMPZs-16" value="" style="endArrow=classic;html=1;rounded=0;entryX=0.5;entryY=0;entryDx=0;entryDy=0;exitX=0.5;exitY=1;exitDx=0;exitDy=0;" edge="1" parent="1" source="7OgDLUYvquiYCTceMPZs-13" target="7OgDLUYvquiYCTceMPZs-14">
          <mxGeometry width="50" height="50" relative="1" as="geometry">
            <mxPoint x="4750" y="730" as="sourcePoint" />
            <mxPoint x="4750" y="770" as="targetPoint" />
          </mxGeometry>
        </mxCell>
        <mxCell id="7OgDLUYvquiYCTceMPZs-17" value="&lt;h1 style=&quot;margin-top: 0px;&quot;&gt;&lt;font style=&quot;font-size: 18px;&quot;&gt;記事の引用RT&lt;/font&gt;&lt;/h1&gt;" style="text;html=1;whiteSpace=wrap;overflow=hidden;rounded=0;" vertex="1" parent="1">
          <mxGeometry x="4200" y="560" width="180" height="40" as="geometry" />
        </mxCell>
        <mxCell id="7OgDLUYvquiYCTceMPZs-21" value="引用RTボタン" style="rounded=1;whiteSpace=wrap;html=1;" vertex="1" parent="1">
          <mxGeometry x="4320" y="760" width="120" height="40" as="geometry" />
        </mxCell>
        <mxCell id="7OgDLUYvquiYCTceMPZs-26" value="つぶやきの入力" style="rounded=1;whiteSpace=wrap;html=1;" vertex="1" parent="1">
          <mxGeometry x="4320" y="840" width="120" height="40" as="geometry" />
        </mxCell>
        <mxCell id="7OgDLUYvquiYCTceMPZs-27" value="" style="endArrow=classic;html=1;rounded=0;exitX=0.5;exitY=1;exitDx=0;exitDy=0;entryX=0.5;entryY=0;entryDx=0;entryDy=0;" edge="1" parent="1" source="7OgDLUYvquiYCTceMPZs-26" target="7OgDLUYvquiYCTceMPZs-28">
          <mxGeometry width="50" height="50" relative="1" as="geometry">
            <mxPoint x="4390" y="810" as="sourcePoint" />
            <mxPoint x="4420" y="910" as="targetPoint" />
          </mxGeometry>
        </mxCell>
        <mxCell id="7OgDLUYvquiYCTceMPZs-28" value="" style="rhombus;whiteSpace=wrap;html=1;" vertex="1" parent="1">
          <mxGeometry x="4360" y="920" width="40" height="40" as="geometry" />
        </mxCell>
        <mxCell id="7OgDLUYvquiYCTceMPZs-29" value="" style="edgeStyle=elbowEdgeStyle;elbow=horizontal;endArrow=classic;html=1;curved=0;rounded=0;endSize=8;startSize=8;exitX=1;exitY=0.5;exitDx=0;exitDy=0;entryX=1;entryY=0.5;entryDx=0;entryDy=0;" edge="1" parent="1" source="7OgDLUYvquiYCTceMPZs-28" target="7OgDLUYvquiYCTceMPZs-26">
          <mxGeometry width="50" height="50" relative="1" as="geometry">
            <mxPoint x="4620" y="1040" as="sourcePoint" />
            <mxPoint x="4670" y="990" as="targetPoint" />
            <Array as="points">
              <mxPoint x="4460" y="900" />
            </Array>
          </mxGeometry>
        </mxCell>
        <mxCell id="7OgDLUYvquiYCTceMPZs-30" value="下書き保存" style="text;html=1;align=center;verticalAlign=middle;whiteSpace=wrap;rounded=0;" vertex="1" parent="1">
          <mxGeometry x="4480" y="890" width="70" height="20" as="geometry" />
        </mxCell>
        <mxCell id="7OgDLUYvquiYCTceMPZs-31" value="" style="endArrow=classic;html=1;rounded=0;exitX=0.5;exitY=1;exitDx=0;exitDy=0;entryX=0.5;entryY=0;entryDx=0;entryDy=0;" edge="1" parent="1" source="7OgDLUYvquiYCTceMPZs-28">
          <mxGeometry width="50" height="50" relative="1" as="geometry">
            <mxPoint x="4390" y="890" as="sourcePoint" />
            <mxPoint x="4380" y="1000" as="targetPoint" />
          </mxGeometry>
        </mxCell>
        <mxCell id="7OgDLUYvquiYCTceMPZs-32" value="投稿ボタン" style="rounded=1;whiteSpace=wrap;html=1;" vertex="1" parent="1">
          <mxGeometry x="4320" y="1000" width="120" height="40" as="geometry" />
        </mxCell>
        <mxCell id="7OgDLUYvquiYCTceMPZs-33" value="" style="endArrow=classic;html=1;rounded=0;exitX=1;exitY=0.5;exitDx=0;exitDy=0;entryX=0;entryY=0.5;entryDx=0;entryDy=0;" edge="1" parent="1" source="7OgDLUYvquiYCTceMPZs-32" target="7OgDLUYvquiYCTceMPZs-34">
          <mxGeometry width="50" height="50" relative="1" as="geometry">
            <mxPoint x="4570" y="870" as="sourcePoint" />
            <mxPoint x="4560" y="1020" as="targetPoint" />
          </mxGeometry>
        </mxCell>
        <mxCell id="7OgDLUYvquiYCTceMPZs-34" value="DB登録" style="rounded=1;whiteSpace=wrap;html=1;" vertex="1" parent="1">
          <mxGeometry x="4560" y="1000" width="120" height="40" as="geometry" />
        </mxCell>
        <mxCell id="7OgDLUYvquiYCTceMPZs-39" value="" style="endArrow=classic;html=1;rounded=0;exitX=0.5;exitY=1;exitDx=0;exitDy=0;entryX=0.5;entryY=0;entryDx=0;entryDy=0;" edge="1" parent="1">
          <mxGeometry width="50" height="50" relative="1" as="geometry">
            <mxPoint x="4379.49" y="800" as="sourcePoint" />
            <mxPoint x="4379.49" y="840" as="targetPoint" />
          </mxGeometry>
        </mxCell>
        <mxCell id="7OgDLUYvquiYCTceMPZs-54" value="" style="ellipse;whiteSpace=wrap;html=1;aspect=fixed;fillColor=#000000;" vertex="1" parent="1">
          <mxGeometry x="4360" y="80" width="40" height="40" as="geometry" />
        </mxCell>
        <mxCell id="7OgDLUYvquiYCTceMPZs-55" value="つぶやきの閲覧" style="rounded=1;whiteSpace=wrap;html=1;" vertex="1" parent="1">
          <mxGeometry x="4320" y="160" width="120" height="40" as="geometry" />
        </mxCell>
        <mxCell id="7OgDLUYvquiYCTceMPZs-56" value="" style="endArrow=classic;html=1;rounded=0;exitX=0.5;exitY=1;exitDx=0;exitDy=0;" edge="1" parent="1" source="7OgDLUYvquiYCTceMPZs-55">
          <mxGeometry width="50" height="50" relative="1" as="geometry">
            <mxPoint x="4730" y="290" as="sourcePoint" />
            <mxPoint x="4380" y="240" as="targetPoint" />
          </mxGeometry>
        </mxCell>
        <mxCell id="7OgDLUYvquiYCTceMPZs-57" value="" style="endArrow=classic;html=1;rounded=0;entryX=0.5;entryY=0;entryDx=0;entryDy=0;exitX=0.5;exitY=1;exitDx=0;exitDy=0;" edge="1" parent="1" source="7OgDLUYvquiYCTceMPZs-54" target="7OgDLUYvquiYCTceMPZs-55">
          <mxGeometry width="50" height="50" relative="1" as="geometry">
            <mxPoint x="4750" y="210" as="sourcePoint" />
            <mxPoint x="4750" y="250" as="targetPoint" />
          </mxGeometry>
        </mxCell>
        <mxCell id="7OgDLUYvquiYCTceMPZs-58" value="&lt;h1 style=&quot;margin-top: 0px;&quot;&gt;&lt;font style=&quot;font-size: 18px;&quot;&gt;つぶやきの引用RT&lt;/font&gt;&lt;/h1&gt;" style="text;html=1;whiteSpace=wrap;overflow=hidden;rounded=0;" vertex="1" parent="1">
          <mxGeometry x="4200" y="40" width="180" height="40" as="geometry" />
        </mxCell>
        <mxCell id="7OgDLUYvquiYCTceMPZs-59" value="引用RTボタン" style="rounded=1;whiteSpace=wrap;html=1;" vertex="1" parent="1">
          <mxGeometry x="4320" y="240" width="120" height="40" as="geometry" />
        </mxCell>
        <mxCell id="7OgDLUYvquiYCTceMPZs-60" value="つぶやきの入力" style="rounded=1;whiteSpace=wrap;html=1;" vertex="1" parent="1">
          <mxGeometry x="4320" y="320" width="120" height="40" as="geometry" />
        </mxCell>
        <mxCell id="7OgDLUYvquiYCTceMPZs-61" value="" style="endArrow=classic;html=1;rounded=0;exitX=0.5;exitY=1;exitDx=0;exitDy=0;entryX=0.5;entryY=0;entryDx=0;entryDy=0;" edge="1" parent="1" source="7OgDLUYvquiYCTceMPZs-60" target="7OgDLUYvquiYCTceMPZs-62">
          <mxGeometry width="50" height="50" relative="1" as="geometry">
            <mxPoint x="4390" y="290" as="sourcePoint" />
            <mxPoint x="4420" y="390" as="targetPoint" />
          </mxGeometry>
        </mxCell>
        <mxCell id="7OgDLUYvquiYCTceMPZs-62" value="" style="rhombus;whiteSpace=wrap;html=1;" vertex="1" parent="1">
          <mxGeometry x="4360" y="400" width="40" height="40" as="geometry" />
        </mxCell>
        <mxCell id="7OgDLUYvquiYCTceMPZs-63" value="" style="edgeStyle=elbowEdgeStyle;elbow=horizontal;endArrow=classic;html=1;curved=0;rounded=0;endSize=8;startSize=8;exitX=1;exitY=0.5;exitDx=0;exitDy=0;entryX=1;entryY=0.5;entryDx=0;entryDy=0;" edge="1" parent="1" source="7OgDLUYvquiYCTceMPZs-62" target="7OgDLUYvquiYCTceMPZs-60">
          <mxGeometry width="50" height="50" relative="1" as="geometry">
            <mxPoint x="4620" y="520" as="sourcePoint" />
            <mxPoint x="4670" y="470" as="targetPoint" />
            <Array as="points">
              <mxPoint x="4460" y="380" />
            </Array>
          </mxGeometry>
        </mxCell>
        <mxCell id="7OgDLUYvquiYCTceMPZs-64" value="下書き保存" style="text;html=1;align=center;verticalAlign=middle;whiteSpace=wrap;rounded=0;" vertex="1" parent="1">
          <mxGeometry x="4480" y="370" width="70" height="20" as="geometry" />
        </mxCell>
        <mxCell id="7OgDLUYvquiYCTceMPZs-65" value="" style="endArrow=classic;html=1;rounded=0;exitX=0.5;exitY=1;exitDx=0;exitDy=0;entryX=0.5;entryY=0;entryDx=0;entryDy=0;" edge="1" parent="1" source="7OgDLUYvquiYCTceMPZs-62">
          <mxGeometry width="50" height="50" relative="1" as="geometry">
            <mxPoint x="4390" y="370" as="sourcePoint" />
            <mxPoint x="4380" y="480" as="targetPoint" />
          </mxGeometry>
        </mxCell>
        <mxCell id="7OgDLUYvquiYCTceMPZs-66" value="投稿ボタン" style="rounded=1;whiteSpace=wrap;html=1;" vertex="1" parent="1">
          <mxGeometry x="4320" y="480" width="120" height="40" as="geometry" />
        </mxCell>
        <mxCell id="7OgDLUYvquiYCTceMPZs-67" value="" style="endArrow=classic;html=1;rounded=0;exitX=1;exitY=0.5;exitDx=0;exitDy=0;entryX=0;entryY=0.5;entryDx=0;entryDy=0;" edge="1" parent="1" source="7OgDLUYvquiYCTceMPZs-66" target="7OgDLUYvquiYCTceMPZs-68">
          <mxGeometry width="50" height="50" relative="1" as="geometry">
            <mxPoint x="4570" y="350" as="sourcePoint" />
            <mxPoint x="4560" y="500" as="targetPoint" />
          </mxGeometry>
        </mxCell>
        <mxCell id="7OgDLUYvquiYCTceMPZs-68" value="DB登録" style="rounded=1;whiteSpace=wrap;html=1;" vertex="1" parent="1">
          <mxGeometry x="4560" y="480" width="120" height="40" as="geometry" />
        </mxCell>
        <mxCell id="7OgDLUYvquiYCTceMPZs-69" value="" style="endArrow=classic;html=1;rounded=0;exitX=0.5;exitY=1;exitDx=0;exitDy=0;entryX=0.5;entryY=0;entryDx=0;entryDy=0;" edge="1" parent="1">
          <mxGeometry width="50" height="50" relative="1" as="geometry">
            <mxPoint x="4379.49" y="280" as="sourcePoint" />
            <mxPoint x="4379.49" y="320" as="targetPoint" />
          </mxGeometry>
        </mxCell>
        <mxCell id="7OgDLUYvquiYCTceMPZs-70" value="" style="ellipse;whiteSpace=wrap;html=1;aspect=fixed;fillColor=#000000;" vertex="1" parent="1">
          <mxGeometry x="3520" y="520" width="40" height="40" as="geometry" />
        </mxCell>
        <mxCell id="7OgDLUYvquiYCTceMPZs-71" value="つぶやきの閲覧" style="rounded=1;whiteSpace=wrap;html=1;" vertex="1" parent="1">
          <mxGeometry x="3480" y="600" width="120" height="40" as="geometry" />
        </mxCell>
        <mxCell id="7OgDLUYvquiYCTceMPZs-72" value="" style="endArrow=classic;html=1;rounded=0;exitX=0.5;exitY=1;exitDx=0;exitDy=0;" edge="1" parent="1" source="7OgDLUYvquiYCTceMPZs-71">
          <mxGeometry width="50" height="50" relative="1" as="geometry">
            <mxPoint x="3890" y="730" as="sourcePoint" />
            <mxPoint x="3540" y="680" as="targetPoint" />
          </mxGeometry>
        </mxCell>
        <mxCell id="7OgDLUYvquiYCTceMPZs-73" value="" style="endArrow=classic;html=1;rounded=0;entryX=0.5;entryY=0;entryDx=0;entryDy=0;exitX=0.5;exitY=1;exitDx=0;exitDy=0;" edge="1" parent="1" source="7OgDLUYvquiYCTceMPZs-70" target="7OgDLUYvquiYCTceMPZs-71">
          <mxGeometry width="50" height="50" relative="1" as="geometry">
            <mxPoint x="3910" y="650" as="sourcePoint" />
            <mxPoint x="3910" y="690" as="targetPoint" />
          </mxGeometry>
        </mxCell>
        <mxCell id="7OgDLUYvquiYCTceMPZs-74" value="&lt;h1 style=&quot;margin-top: 0px;&quot;&gt;&lt;font style=&quot;font-size: 18px;&quot;&gt;つぶやきの閲覧&lt;/font&gt;&lt;/h1&gt;" style="text;html=1;whiteSpace=wrap;overflow=hidden;rounded=0;" vertex="1" parent="1">
          <mxGeometry x="3360" y="480" width="180" height="40" as="geometry" />
        </mxCell>
        <mxCell id="7OgDLUYvquiYCTceMPZs-75" value="" style="shape=partialRectangle;whiteSpace=wrap;html=1;left=0;right=0;fillColor=none;" vertex="1" parent="1">
          <mxGeometry x="3400" y="680" width="280" height="120" as="geometry" />
        </mxCell>
        <mxCell id="7OgDLUYvquiYCTceMPZs-77" value="ブックマーク" style="rounded=1;whiteSpace=wrap;html=1;" vertex="1" parent="1">
          <mxGeometry x="3560" y="720" width="120" height="40" as="geometry" />
        </mxCell>
        <mxCell id="7OgDLUYvquiYCTceMPZs-78" value="RT" style="rounded=1;whiteSpace=wrap;html=1;" vertex="1" parent="1">
          <mxGeometry x="3400" y="720" width="120" height="40" as="geometry" />
        </mxCell>
        <mxCell id="7OgDLUYvquiYCTceMPZs-80" value="" style="edgeStyle=elbowEdgeStyle;elbow=vertical;endArrow=classic;html=1;curved=0;rounded=0;endSize=8;startSize=8;entryX=0.5;entryY=0;entryDx=0;entryDy=0;" edge="1" parent="1" target="7OgDLUYvquiYCTceMPZs-81">
          <mxGeometry width="50" height="50" relative="1" as="geometry">
            <mxPoint x="3540" y="800" as="sourcePoint" />
            <mxPoint x="3905" y="840" as="targetPoint" />
          </mxGeometry>
        </mxCell>
        <mxCell id="7OgDLUYvquiYCTceMPZs-81" value="DB更新" style="rounded=1;whiteSpace=wrap;html=1;" vertex="1" parent="1">
          <mxGeometry x="3805" y="840" width="120" height="40" as="geometry" />
        </mxCell>
        <mxCell id="7OgDLUYvquiYCTceMPZs-82" value="" style="ellipse;whiteSpace=wrap;html=1;aspect=fixed;fillColor=#000000;" vertex="1" parent="1">
          <mxGeometry x="5160" y="80" width="40" height="40" as="geometry" />
        </mxCell>
        <mxCell id="7OgDLUYvquiYCTceMPZs-83" value="つぶやきの閲覧" style="rounded=1;whiteSpace=wrap;html=1;" vertex="1" parent="1">
          <mxGeometry x="5120" y="160" width="120" height="40" as="geometry" />
        </mxCell>
        <mxCell id="7OgDLUYvquiYCTceMPZs-84" value="" style="endArrow=classic;html=1;rounded=0;exitX=0.5;exitY=1;exitDx=0;exitDy=0;" edge="1" parent="1" source="7OgDLUYvquiYCTceMPZs-83">
          <mxGeometry width="50" height="50" relative="1" as="geometry">
            <mxPoint x="5530" y="290" as="sourcePoint" />
            <mxPoint x="5180" y="240" as="targetPoint" />
          </mxGeometry>
        </mxCell>
        <mxCell id="7OgDLUYvquiYCTceMPZs-85" value="" style="endArrow=classic;html=1;rounded=0;entryX=0.5;entryY=0;entryDx=0;entryDy=0;exitX=0.5;exitY=1;exitDx=0;exitDy=0;" edge="1" parent="1" source="7OgDLUYvquiYCTceMPZs-82" target="7OgDLUYvquiYCTceMPZs-83">
          <mxGeometry width="50" height="50" relative="1" as="geometry">
            <mxPoint x="5550" y="210" as="sourcePoint" />
            <mxPoint x="5550" y="250" as="targetPoint" />
          </mxGeometry>
        </mxCell>
        <mxCell id="7OgDLUYvquiYCTceMPZs-86" value="&lt;h1 style=&quot;margin-top: 0px;&quot;&gt;&lt;font style=&quot;font-size: 18px;&quot;&gt;つぶやきへの返信&lt;/font&gt;&lt;/h1&gt;" style="text;html=1;whiteSpace=wrap;overflow=hidden;rounded=0;" vertex="1" parent="1">
          <mxGeometry x="5000" y="40" width="180" height="40" as="geometry" />
        </mxCell>
        <mxCell id="7OgDLUYvquiYCTceMPZs-87" value="返信ボタン" style="rounded=1;whiteSpace=wrap;html=1;" vertex="1" parent="1">
          <mxGeometry x="5120" y="240" width="120" height="40" as="geometry" />
        </mxCell>
        <mxCell id="7OgDLUYvquiYCTceMPZs-88" value="返信の入力" style="rounded=1;whiteSpace=wrap;html=1;" vertex="1" parent="1">
          <mxGeometry x="5120" y="320" width="120" height="40" as="geometry" />
        </mxCell>
        <mxCell id="7OgDLUYvquiYCTceMPZs-89" value="" style="endArrow=classic;html=1;rounded=0;exitX=0.5;exitY=1;exitDx=0;exitDy=0;entryX=0.5;entryY=0;entryDx=0;entryDy=0;" edge="1" parent="1" source="7OgDLUYvquiYCTceMPZs-88" target="7OgDLUYvquiYCTceMPZs-90">
          <mxGeometry width="50" height="50" relative="1" as="geometry">
            <mxPoint x="5190" y="290" as="sourcePoint" />
            <mxPoint x="5220" y="390" as="targetPoint" />
          </mxGeometry>
        </mxCell>
        <mxCell id="7OgDLUYvquiYCTceMPZs-90" value="" style="rhombus;whiteSpace=wrap;html=1;" vertex="1" parent="1">
          <mxGeometry x="5160" y="400" width="40" height="40" as="geometry" />
        </mxCell>
        <mxCell id="7OgDLUYvquiYCTceMPZs-91" value="" style="edgeStyle=elbowEdgeStyle;elbow=horizontal;endArrow=classic;html=1;curved=0;rounded=0;endSize=8;startSize=8;exitX=1;exitY=0.5;exitDx=0;exitDy=0;entryX=1;entryY=0.5;entryDx=0;entryDy=0;" edge="1" parent="1" source="7OgDLUYvquiYCTceMPZs-90" target="7OgDLUYvquiYCTceMPZs-88">
          <mxGeometry width="50" height="50" relative="1" as="geometry">
            <mxPoint x="5420" y="520" as="sourcePoint" />
            <mxPoint x="5470" y="470" as="targetPoint" />
            <Array as="points">
              <mxPoint x="5260" y="380" />
            </Array>
          </mxGeometry>
        </mxCell>
        <mxCell id="7OgDLUYvquiYCTceMPZs-92" value="下書き保存" style="text;html=1;align=center;verticalAlign=middle;whiteSpace=wrap;rounded=0;" vertex="1" parent="1">
          <mxGeometry x="5280" y="370" width="70" height="20" as="geometry" />
        </mxCell>
        <mxCell id="7OgDLUYvquiYCTceMPZs-93" value="" style="endArrow=classic;html=1;rounded=0;exitX=0.5;exitY=1;exitDx=0;exitDy=0;entryX=0.5;entryY=0;entryDx=0;entryDy=0;" edge="1" parent="1" source="7OgDLUYvquiYCTceMPZs-90">
          <mxGeometry width="50" height="50" relative="1" as="geometry">
            <mxPoint x="5190" y="370" as="sourcePoint" />
            <mxPoint x="5180" y="480" as="targetPoint" />
          </mxGeometry>
        </mxCell>
        <mxCell id="7OgDLUYvquiYCTceMPZs-94" value="投稿ボタン" style="rounded=1;whiteSpace=wrap;html=1;" vertex="1" parent="1">
          <mxGeometry x="5120" y="480" width="120" height="40" as="geometry" />
        </mxCell>
        <mxCell id="7OgDLUYvquiYCTceMPZs-95" value="" style="endArrow=classic;html=1;rounded=0;exitX=1;exitY=0.5;exitDx=0;exitDy=0;entryX=0;entryY=0.5;entryDx=0;entryDy=0;" edge="1" parent="1" source="7OgDLUYvquiYCTceMPZs-94" target="7OgDLUYvquiYCTceMPZs-96">
          <mxGeometry width="50" height="50" relative="1" as="geometry">
            <mxPoint x="5370" y="350" as="sourcePoint" />
            <mxPoint x="5360" y="500" as="targetPoint" />
          </mxGeometry>
        </mxCell>
        <mxCell id="7OgDLUYvquiYCTceMPZs-96" value="DB登録" style="rounded=1;whiteSpace=wrap;html=1;" vertex="1" parent="1">
          <mxGeometry x="5360" y="480" width="120" height="40" as="geometry" />
        </mxCell>
        <mxCell id="7OgDLUYvquiYCTceMPZs-97" value="" style="endArrow=classic;html=1;rounded=0;exitX=0.5;exitY=1;exitDx=0;exitDy=0;entryX=0.5;entryY=0;entryDx=0;entryDy=0;" edge="1" parent="1">
          <mxGeometry width="50" height="50" relative="1" as="geometry">
            <mxPoint x="5179.49" y="280" as="sourcePoint" />
            <mxPoint x="5179.49" y="320" as="targetPoint" />
          </mxGeometry>
        </mxCell>
        <mxCell id="7OgDLUYvquiYCTceMPZs-98" value="" style="ellipse;whiteSpace=wrap;html=1;aspect=fixed;fillColor=#000000;" vertex="1" parent="1">
          <mxGeometry x="6000" y="80" width="40" height="40" as="geometry" />
        </mxCell>
        <mxCell id="7OgDLUYvquiYCTceMPZs-99" value="大百科登録ボタン" style="rounded=1;whiteSpace=wrap;html=1;" vertex="1" parent="1">
          <mxGeometry x="5960" y="160" width="120" height="40" as="geometry" />
        </mxCell>
        <mxCell id="7OgDLUYvquiYCTceMPZs-100" value="" style="endArrow=classic;html=1;rounded=0;exitX=0.5;exitY=1;exitDx=0;exitDy=0;" edge="1" parent="1" source="7OgDLUYvquiYCTceMPZs-99">
          <mxGeometry width="50" height="50" relative="1" as="geometry">
            <mxPoint x="6370" y="290" as="sourcePoint" />
            <mxPoint x="6020" y="240" as="targetPoint" />
          </mxGeometry>
        </mxCell>
        <mxCell id="7OgDLUYvquiYCTceMPZs-101" value="" style="endArrow=classic;html=1;rounded=0;entryX=0.5;entryY=0;entryDx=0;entryDy=0;exitX=0.5;exitY=1;exitDx=0;exitDy=0;" edge="1" parent="1" source="7OgDLUYvquiYCTceMPZs-98" target="7OgDLUYvquiYCTceMPZs-99">
          <mxGeometry width="50" height="50" relative="1" as="geometry">
            <mxPoint x="6390" y="210" as="sourcePoint" />
            <mxPoint x="6390" y="250" as="targetPoint" />
          </mxGeometry>
        </mxCell>
        <mxCell id="7OgDLUYvquiYCTceMPZs-102" value="&lt;h1 style=&quot;margin-top: 0px;&quot;&gt;&lt;font style=&quot;font-size: 18px;&quot;&gt;大百科登録&lt;/font&gt;&lt;/h1&gt;" style="text;html=1;whiteSpace=wrap;overflow=hidden;rounded=0;" vertex="1" parent="1">
          <mxGeometry x="5840" y="40" width="180" height="40" as="geometry" />
        </mxCell>
        <mxCell id="7OgDLUYvquiYCTceMPZs-103" value="大百科の入力" style="rounded=1;whiteSpace=wrap;html=1;" vertex="1" parent="1">
          <mxGeometry x="5960" y="240" width="120" height="40" as="geometry" />
        </mxCell>
        <mxCell id="7OgDLUYvquiYCTceMPZs-105" value="" style="endArrow=classic;html=1;rounded=0;exitX=0.5;exitY=1;exitDx=0;exitDy=0;entryX=0.5;entryY=0;entryDx=0;entryDy=0;" edge="1" parent="1" target="7OgDLUYvquiYCTceMPZs-106">
          <mxGeometry width="50" height="50" relative="1" as="geometry">
            <mxPoint x="6020" y="280" as="sourcePoint" />
            <mxPoint x="6060" y="310" as="targetPoint" />
          </mxGeometry>
        </mxCell>
        <mxCell id="7OgDLUYvquiYCTceMPZs-106" value="" style="rhombus;whiteSpace=wrap;html=1;" vertex="1" parent="1">
          <mxGeometry x="6000" y="320" width="40" height="40" as="geometry" />
        </mxCell>
        <mxCell id="7OgDLUYvquiYCTceMPZs-107" value="" style="edgeStyle=elbowEdgeStyle;elbow=horizontal;endArrow=classic;html=1;curved=0;rounded=0;endSize=8;startSize=8;exitX=1;exitY=0.5;exitDx=0;exitDy=0;entryX=1;entryY=0.5;entryDx=0;entryDy=0;" edge="1" parent="1" source="7OgDLUYvquiYCTceMPZs-106">
          <mxGeometry width="50" height="50" relative="1" as="geometry">
            <mxPoint x="6260" y="440" as="sourcePoint" />
            <mxPoint x="6080" y="260" as="targetPoint" />
            <Array as="points">
              <mxPoint x="6100" y="300" />
            </Array>
          </mxGeometry>
        </mxCell>
        <mxCell id="7OgDLUYvquiYCTceMPZs-108" value="下書き保存" style="text;html=1;align=center;verticalAlign=middle;whiteSpace=wrap;rounded=0;" vertex="1" parent="1">
          <mxGeometry x="6120" y="290" width="70" height="20" as="geometry" />
        </mxCell>
        <mxCell id="7OgDLUYvquiYCTceMPZs-109" value="" style="endArrow=classic;html=1;rounded=0;exitX=0.5;exitY=1;exitDx=0;exitDy=0;entryX=0.5;entryY=0;entryDx=0;entryDy=0;" edge="1" parent="1" source="7OgDLUYvquiYCTceMPZs-106" target="7OgDLUYvquiYCTceMPZs-110">
          <mxGeometry width="50" height="50" relative="1" as="geometry">
            <mxPoint x="6030" y="370" as="sourcePoint" />
            <mxPoint x="6020" y="480" as="targetPoint" />
          </mxGeometry>
        </mxCell>
        <mxCell id="7OgDLUYvquiYCTceMPZs-110" value="投稿ボタン" style="rounded=1;whiteSpace=wrap;html=1;" vertex="1" parent="1">
          <mxGeometry x="5960" y="400" width="120" height="40" as="geometry" />
        </mxCell>
        <mxCell id="7OgDLUYvquiYCTceMPZs-111" value="" style="endArrow=classic;html=1;rounded=0;exitX=1;exitY=0.5;exitDx=0;exitDy=0;entryX=0;entryY=0.5;entryDx=0;entryDy=0;" edge="1" parent="1" source="7OgDLUYvquiYCTceMPZs-110" target="7OgDLUYvquiYCTceMPZs-112">
          <mxGeometry width="50" height="50" relative="1" as="geometry">
            <mxPoint x="6210" y="270" as="sourcePoint" />
            <mxPoint x="6200" y="420" as="targetPoint" />
          </mxGeometry>
        </mxCell>
        <mxCell id="7OgDLUYvquiYCTceMPZs-112" value="DB仮登録" style="rounded=1;whiteSpace=wrap;html=1;" vertex="1" parent="1">
          <mxGeometry x="6200" y="400" width="120" height="40" as="geometry" />
        </mxCell>
        <mxCell id="7OgDLUYvquiYCTceMPZs-114" value="" style="ellipse;whiteSpace=wrap;html=1;aspect=fixed;fillColor=#000000;" vertex="1" parent="1">
          <mxGeometry x="1880" y="1240" width="40" height="40" as="geometry" />
        </mxCell>
        <mxCell id="7OgDLUYvquiYCTceMPZs-115" value="記事編集ボタン" style="rounded=1;whiteSpace=wrap;html=1;" vertex="1" parent="1">
          <mxGeometry x="1840" y="1320" width="120" height="40" as="geometry" />
        </mxCell>
        <mxCell id="7OgDLUYvquiYCTceMPZs-116" value="記事の入力" style="rounded=1;whiteSpace=wrap;html=1;" vertex="1" parent="1">
          <mxGeometry x="1840" y="1400" width="120" height="40" as="geometry" />
        </mxCell>
        <mxCell id="7OgDLUYvquiYCTceMPZs-117" value="" style="endArrow=classic;html=1;rounded=0;exitX=0.5;exitY=1;exitDx=0;exitDy=0;" edge="1" parent="1" source="7OgDLUYvquiYCTceMPZs-115" target="7OgDLUYvquiYCTceMPZs-116">
          <mxGeometry width="50" height="50" relative="1" as="geometry">
            <mxPoint x="2250" y="1450" as="sourcePoint" />
            <mxPoint x="1901.08" y="1393" as="targetPoint" />
          </mxGeometry>
        </mxCell>
        <mxCell id="7OgDLUYvquiYCTceMPZs-118" value="" style="endArrow=classic;html=1;rounded=0;entryX=0.5;entryY=0;entryDx=0;entryDy=0;exitX=0.5;exitY=1;exitDx=0;exitDy=0;" edge="1" parent="1" source="7OgDLUYvquiYCTceMPZs-114" target="7OgDLUYvquiYCTceMPZs-115">
          <mxGeometry width="50" height="50" relative="1" as="geometry">
            <mxPoint x="2270" y="1370" as="sourcePoint" />
            <mxPoint x="2270" y="1410" as="targetPoint" />
          </mxGeometry>
        </mxCell>
        <mxCell id="7OgDLUYvquiYCTceMPZs-119" value="&lt;h1 style=&quot;margin-top: 0px;&quot;&gt;&lt;font style=&quot;font-size: 18px;&quot;&gt;記事編集&lt;/font&gt;&lt;/h1&gt;" style="text;html=1;whiteSpace=wrap;overflow=hidden;rounded=0;" vertex="1" parent="1">
          <mxGeometry x="1720" y="1200" width="180" height="40" as="geometry" />
        </mxCell>
        <mxCell id="7OgDLUYvquiYCTceMPZs-120" value="" style="endArrow=classic;html=1;rounded=0;exitX=0.5;exitY=1;exitDx=0;exitDy=0;entryX=0.5;entryY=0;entryDx=0;entryDy=0;" edge="1" parent="1" source="7OgDLUYvquiYCTceMPZs-116" target="7OgDLUYvquiYCTceMPZs-139">
          <mxGeometry width="50" height="50" relative="1" as="geometry">
            <mxPoint x="1910" y="1370" as="sourcePoint" />
            <mxPoint x="1940" y="1470" as="targetPoint" />
          </mxGeometry>
        </mxCell>
        <mxCell id="7OgDLUYvquiYCTceMPZs-121" value="主タグ一覧の取得" style="rounded=1;whiteSpace=wrap;html=1;" vertex="1" parent="1">
          <mxGeometry x="2080" y="1400" width="120" height="40" as="geometry" />
        </mxCell>
        <mxCell id="7OgDLUYvquiYCTceMPZs-122" value="" style="endArrow=classic;html=1;rounded=0;exitX=0;exitY=0.5;exitDx=0;exitDy=0;entryX=1;entryY=0.5;entryDx=0;entryDy=0;" edge="1" parent="1" source="7OgDLUYvquiYCTceMPZs-121">
          <mxGeometry width="50" height="50" relative="1" as="geometry">
            <mxPoint x="1910" y="1370" as="sourcePoint" />
            <mxPoint x="1960" y="1420" as="targetPoint" />
          </mxGeometry>
        </mxCell>
        <mxCell id="7OgDLUYvquiYCTceMPZs-123" value="投稿ボタン" style="rounded=1;whiteSpace=wrap;html=1;" vertex="1" parent="1">
          <mxGeometry x="1840" y="1560" width="120" height="40" as="geometry" />
        </mxCell>
        <mxCell id="7OgDLUYvquiYCTceMPZs-124" value="" style="endArrow=classic;html=1;rounded=0;exitX=1;exitY=0.5;exitDx=0;exitDy=0;entryX=0;entryY=0.5;entryDx=0;entryDy=0;" edge="1" parent="1" source="7OgDLUYvquiYCTceMPZs-123" target="7OgDLUYvquiYCTceMPZs-125">
          <mxGeometry width="50" height="50" relative="1" as="geometry">
            <mxPoint x="2090" y="1430" as="sourcePoint" />
            <mxPoint x="2080" y="1580" as="targetPoint" />
          </mxGeometry>
        </mxCell>
        <mxCell id="7OgDLUYvquiYCTceMPZs-125" value="DB登録" style="rounded=1;whiteSpace=wrap;html=1;" vertex="1" parent="1">
          <mxGeometry x="2080" y="1560" width="120" height="40" as="geometry" />
        </mxCell>
        <mxCell id="7OgDLUYvquiYCTceMPZs-126" value="" style="ellipse;whiteSpace=wrap;html=1;aspect=fixed;fillColor=#000000;" vertex="1" parent="1">
          <mxGeometry x="1880" y="1680" width="40" height="40" as="geometry" />
        </mxCell>
        <mxCell id="7OgDLUYvquiYCTceMPZs-128" value="コミュニティノート編集ボタン" style="rounded=1;whiteSpace=wrap;html=1;" vertex="1" parent="1">
          <mxGeometry x="1840" y="1760" width="120" height="40" as="geometry" />
        </mxCell>
        <mxCell id="7OgDLUYvquiYCTceMPZs-130" value="" style="endArrow=classic;html=1;rounded=0;entryX=0.5;entryY=0;entryDx=0;entryDy=0;exitX=0.5;exitY=1;exitDx=0;exitDy=0;" edge="1" parent="1" source="7OgDLUYvquiYCTceMPZs-126">
          <mxGeometry width="50" height="50" relative="1" as="geometry">
            <mxPoint x="2270" y="1810" as="sourcePoint" />
            <mxPoint x="1899.9999999999995" y="1760" as="targetPoint" />
          </mxGeometry>
        </mxCell>
        <mxCell id="7OgDLUYvquiYCTceMPZs-131" value="&lt;h1 style=&quot;margin-top: 0px;&quot;&gt;&lt;font style=&quot;font-size: 18px;&quot;&gt;コミュニティノート編集&lt;/font&gt;&lt;/h1&gt;" style="text;html=1;whiteSpace=wrap;overflow=hidden;rounded=0;" vertex="1" parent="1">
          <mxGeometry x="1720" y="1640" width="200" height="40" as="geometry" />
        </mxCell>
        <mxCell id="7OgDLUYvquiYCTceMPZs-132" value="コミュニティノート入力" style="rounded=1;whiteSpace=wrap;html=1;" vertex="1" parent="1">
          <mxGeometry x="1840" y="1840" width="120" height="40" as="geometry" />
        </mxCell>
        <mxCell id="7OgDLUYvquiYCTceMPZs-133" value="" style="endArrow=classic;html=1;rounded=0;exitX=0.5;exitY=1;exitDx=0;exitDy=0;" edge="1" parent="1" source="7OgDLUYvquiYCTceMPZs-128" target="7OgDLUYvquiYCTceMPZs-132">
          <mxGeometry width="50" height="50" relative="1" as="geometry">
            <mxPoint x="1910" y="1730" as="sourcePoint" />
            <mxPoint x="1910" y="1770" as="targetPoint" />
          </mxGeometry>
        </mxCell>
        <mxCell id="7OgDLUYvquiYCTceMPZs-134" value="" style="endArrow=classic;html=1;rounded=0;exitX=0.5;exitY=1;exitDx=0;exitDy=0;entryX=0.5;entryY=0;entryDx=0;entryDy=0;" edge="1" parent="1" source="7OgDLUYvquiYCTceMPZs-132">
          <mxGeometry width="50" height="50" relative="1" as="geometry">
            <mxPoint x="1910" y="1810" as="sourcePoint" />
            <mxPoint x="1900" y="1920" as="targetPoint" />
          </mxGeometry>
        </mxCell>
        <mxCell id="7OgDLUYvquiYCTceMPZs-135" value="投稿ボタン" style="rounded=1;whiteSpace=wrap;html=1;" vertex="1" parent="1">
          <mxGeometry x="1840" y="2000" width="120" height="40" as="geometry" />
        </mxCell>
        <mxCell id="7OgDLUYvquiYCTceMPZs-136" value="" style="endArrow=classic;html=1;rounded=0;exitX=0.5;exitY=1;exitDx=0;exitDy=0;entryX=0.5;entryY=0;entryDx=0;entryDy=0;" edge="1" parent="1" target="7OgDLUYvquiYCTceMPZs-135">
          <mxGeometry width="50" height="50" relative="1" as="geometry">
            <mxPoint x="1900" y="1960" as="sourcePoint" />
            <mxPoint x="1910" y="1930" as="targetPoint" />
          </mxGeometry>
        </mxCell>
        <mxCell id="7OgDLUYvquiYCTceMPZs-137" value="" style="endArrow=classic;html=1;rounded=0;exitX=1;exitY=0.5;exitDx=0;exitDy=0;" edge="1" parent="1" source="7OgDLUYvquiYCTceMPZs-135">
          <mxGeometry width="50" height="50" relative="1" as="geometry">
            <mxPoint x="2090" y="1870" as="sourcePoint" />
            <mxPoint x="2080" y="2020" as="targetPoint" />
          </mxGeometry>
        </mxCell>
        <mxCell id="7OgDLUYvquiYCTceMPZs-138" value="DB登録" style="rounded=1;whiteSpace=wrap;html=1;" vertex="1" parent="1">
          <mxGeometry x="2080" y="2000" width="120" height="40" as="geometry" />
        </mxCell>
        <mxCell id="7OgDLUYvquiYCTceMPZs-139" value="" style="rhombus;whiteSpace=wrap;html=1;" vertex="1" parent="1">
          <mxGeometry x="1880" y="1480" width="40" height="40" as="geometry" />
        </mxCell>
        <mxCell id="7OgDLUYvquiYCTceMPZs-140" value="" style="edgeStyle=elbowEdgeStyle;elbow=horizontal;endArrow=classic;html=1;curved=0;rounded=0;endSize=8;startSize=8;exitX=1;exitY=0.5;exitDx=0;exitDy=0;entryX=1;entryY=0.5;entryDx=0;entryDy=0;" edge="1" parent="1" source="7OgDLUYvquiYCTceMPZs-139" target="7OgDLUYvquiYCTceMPZs-116">
          <mxGeometry width="50" height="50" relative="1" as="geometry">
            <mxPoint x="2140" y="1600" as="sourcePoint" />
            <mxPoint x="2190" y="1550" as="targetPoint" />
            <Array as="points">
              <mxPoint x="1980" y="1460" />
            </Array>
          </mxGeometry>
        </mxCell>
        <mxCell id="7OgDLUYvquiYCTceMPZs-141" value="下書き保存" style="text;html=1;align=center;verticalAlign=middle;whiteSpace=wrap;rounded=0;" vertex="1" parent="1">
          <mxGeometry x="2000" y="1450" width="70" height="20" as="geometry" />
        </mxCell>
        <mxCell id="7OgDLUYvquiYCTceMPZs-142" value="" style="endArrow=classic;html=1;rounded=0;exitX=0.5;exitY=1;exitDx=0;exitDy=0;entryX=0.5;entryY=0;entryDx=0;entryDy=0;" edge="1" parent="1" source="7OgDLUYvquiYCTceMPZs-139" target="7OgDLUYvquiYCTceMPZs-123">
          <mxGeometry width="50" height="50" relative="1" as="geometry">
            <mxPoint x="1910" y="1450" as="sourcePoint" />
            <mxPoint x="1910" y="1490" as="targetPoint" />
          </mxGeometry>
        </mxCell>
        <mxCell id="7OgDLUYvquiYCTceMPZs-143" value="&lt;h1 style=&quot;margin-top: 0px;&quot;&gt;&lt;span style=&quot;font-size: 18px;&quot;&gt;記事内容&lt;/span&gt;&lt;/h1&gt;&lt;p&gt;・文字/URL&lt;/p&gt;&lt;p&gt;・画像/動画&lt;/p&gt;&lt;p&gt;・主タグ/副タグ&lt;/p&gt;" style="text;html=1;whiteSpace=wrap;overflow=hidden;rounded=0;" vertex="1" parent="1">
          <mxGeometry x="1720" y="1440" width="180" height="120" as="geometry" />
        </mxCell>
        <mxCell id="7OgDLUYvquiYCTceMPZs-144" value="" style="rhombus;whiteSpace=wrap;html=1;" vertex="1" parent="1">
          <mxGeometry x="1880" y="1920" width="40" height="40" as="geometry" />
        </mxCell>
        <mxCell id="7OgDLUYvquiYCTceMPZs-145" value="" style="edgeStyle=elbowEdgeStyle;elbow=horizontal;endArrow=classic;html=1;curved=0;rounded=0;endSize=8;startSize=8;exitX=1;exitY=0.5;exitDx=0;exitDy=0;entryX=1;entryY=0.5;entryDx=0;entryDy=0;" edge="1" parent="1" source="7OgDLUYvquiYCTceMPZs-144">
          <mxGeometry width="50" height="50" relative="1" as="geometry">
            <mxPoint x="2140" y="2040" as="sourcePoint" />
            <mxPoint x="1960" y="1860" as="targetPoint" />
            <Array as="points">
              <mxPoint x="1980" y="1900" />
            </Array>
          </mxGeometry>
        </mxCell>
        <mxCell id="7OgDLUYvquiYCTceMPZs-146" value="下書き保存" style="text;html=1;align=center;verticalAlign=middle;whiteSpace=wrap;rounded=0;" vertex="1" parent="1">
          <mxGeometry x="2000" y="1890" width="70" height="20" as="geometry" />
        </mxCell>
        <mxCell id="7OgDLUYvquiYCTceMPZs-147" value="" style="ellipse;whiteSpace=wrap;html=1;aspect=fixed;fillColor=#000000;" vertex="1" parent="1">
          <mxGeometry x="3520" y="1240" width="40" height="40" as="geometry" />
        </mxCell>
        <mxCell id="7OgDLUYvquiYCTceMPZs-148" value="つぶやき編集ボタン" style="rounded=1;whiteSpace=wrap;html=1;" vertex="1" parent="1">
          <mxGeometry x="3480" y="1320" width="120" height="40" as="geometry" />
        </mxCell>
        <mxCell id="7OgDLUYvquiYCTceMPZs-149" value="" style="endArrow=classic;html=1;rounded=0;entryX=0.5;entryY=0;entryDx=0;entryDy=0;exitX=0.5;exitY=1;exitDx=0;exitDy=0;" edge="1" parent="1" source="7OgDLUYvquiYCTceMPZs-147" target="7OgDLUYvquiYCTceMPZs-148">
          <mxGeometry width="50" height="50" relative="1" as="geometry">
            <mxPoint x="3910" y="1370" as="sourcePoint" />
            <mxPoint x="3910" y="1410" as="targetPoint" />
          </mxGeometry>
        </mxCell>
        <mxCell id="7OgDLUYvquiYCTceMPZs-150" value="&lt;h1 style=&quot;margin-top: 0px;&quot;&gt;&lt;font style=&quot;font-size: 18px;&quot;&gt;つぶやき編集&lt;/font&gt;&lt;/h1&gt;" style="text;html=1;whiteSpace=wrap;overflow=hidden;rounded=0;" vertex="1" parent="1">
          <mxGeometry x="3360" y="1200" width="180" height="40" as="geometry" />
        </mxCell>
        <mxCell id="7OgDLUYvquiYCTceMPZs-151" value="つぶやきの入力" style="rounded=1;whiteSpace=wrap;html=1;" vertex="1" parent="1">
          <mxGeometry x="3480" y="1400" width="120" height="40" as="geometry" />
        </mxCell>
        <mxCell id="7OgDLUYvquiYCTceMPZs-152" value="" style="endArrow=classic;html=1;rounded=0;exitX=0.5;exitY=1;exitDx=0;exitDy=0;" edge="1" parent="1" target="7OgDLUYvquiYCTceMPZs-151">
          <mxGeometry width="50" height="50" relative="1" as="geometry">
            <mxPoint x="3540" y="1360" as="sourcePoint" />
            <mxPoint x="3541.08" y="1393" as="targetPoint" />
          </mxGeometry>
        </mxCell>
        <mxCell id="7OgDLUYvquiYCTceMPZs-153" value="" style="endArrow=classic;html=1;rounded=0;exitX=0.5;exitY=1;exitDx=0;exitDy=0;entryX=0.5;entryY=0;entryDx=0;entryDy=0;" edge="1" parent="1" source="7OgDLUYvquiYCTceMPZs-151" target="7OgDLUYvquiYCTceMPZs-157">
          <mxGeometry width="50" height="50" relative="1" as="geometry">
            <mxPoint x="3550" y="1370" as="sourcePoint" />
            <mxPoint x="3580" y="1470" as="targetPoint" />
          </mxGeometry>
        </mxCell>
        <mxCell id="7OgDLUYvquiYCTceMPZs-154" value="投稿ボタン" style="rounded=1;whiteSpace=wrap;html=1;" vertex="1" parent="1">
          <mxGeometry x="3480" y="1560" width="120" height="40" as="geometry" />
        </mxCell>
        <mxCell id="7OgDLUYvquiYCTceMPZs-155" value="" style="endArrow=classic;html=1;rounded=0;exitX=1;exitY=0.5;exitDx=0;exitDy=0;entryX=0;entryY=0.5;entryDx=0;entryDy=0;" edge="1" parent="1" source="7OgDLUYvquiYCTceMPZs-154" target="7OgDLUYvquiYCTceMPZs-156">
          <mxGeometry width="50" height="50" relative="1" as="geometry">
            <mxPoint x="3730" y="1430" as="sourcePoint" />
            <mxPoint x="3720" y="1580" as="targetPoint" />
          </mxGeometry>
        </mxCell>
        <mxCell id="7OgDLUYvquiYCTceMPZs-156" value="DB登録" style="rounded=1;whiteSpace=wrap;html=1;" vertex="1" parent="1">
          <mxGeometry x="3720" y="1560" width="120" height="40" as="geometry" />
        </mxCell>
        <mxCell id="7OgDLUYvquiYCTceMPZs-157" value="" style="rhombus;whiteSpace=wrap;html=1;" vertex="1" parent="1">
          <mxGeometry x="3520" y="1480" width="40" height="40" as="geometry" />
        </mxCell>
        <mxCell id="7OgDLUYvquiYCTceMPZs-158" value="" style="edgeStyle=elbowEdgeStyle;elbow=horizontal;endArrow=classic;html=1;curved=0;rounded=0;endSize=8;startSize=8;exitX=1;exitY=0.5;exitDx=0;exitDy=0;entryX=1;entryY=0.5;entryDx=0;entryDy=0;" edge="1" parent="1" source="7OgDLUYvquiYCTceMPZs-157" target="7OgDLUYvquiYCTceMPZs-151">
          <mxGeometry width="50" height="50" relative="1" as="geometry">
            <mxPoint x="3780" y="1600" as="sourcePoint" />
            <mxPoint x="3830" y="1550" as="targetPoint" />
            <Array as="points">
              <mxPoint x="3620" y="1460" />
            </Array>
          </mxGeometry>
        </mxCell>
        <mxCell id="7OgDLUYvquiYCTceMPZs-159" value="下書き保存" style="text;html=1;align=center;verticalAlign=middle;whiteSpace=wrap;rounded=0;" vertex="1" parent="1">
          <mxGeometry x="3640" y="1450" width="70" height="20" as="geometry" />
        </mxCell>
        <mxCell id="7OgDLUYvquiYCTceMPZs-160" value="" style="endArrow=classic;html=1;rounded=0;exitX=0.5;exitY=1;exitDx=0;exitDy=0;entryX=0.5;entryY=0;entryDx=0;entryDy=0;" edge="1" parent="1" source="7OgDLUYvquiYCTceMPZs-157" target="7OgDLUYvquiYCTceMPZs-154">
          <mxGeometry width="50" height="50" relative="1" as="geometry">
            <mxPoint x="3550" y="1450" as="sourcePoint" />
            <mxPoint x="3550" y="1490" as="targetPoint" />
          </mxGeometry>
        </mxCell>
        <mxCell id="7OgDLUYvquiYCTceMPZs-177" value="" style="ellipse;whiteSpace=wrap;html=1;aspect=fixed;fillColor=#000000;" vertex="1" parent="1">
          <mxGeometry x="5160" y="1240" width="40" height="40" as="geometry" />
        </mxCell>
        <mxCell id="7OgDLUYvquiYCTceMPZs-179" value="" style="endArrow=classic;html=1;rounded=0;exitX=0.5;exitY=1;exitDx=0;exitDy=0;" edge="1" parent="1">
          <mxGeometry width="50" height="50" relative="1" as="geometry">
            <mxPoint x="5180" y="1280" as="sourcePoint" />
            <mxPoint x="5180" y="1320" as="targetPoint" />
          </mxGeometry>
        </mxCell>
        <mxCell id="7OgDLUYvquiYCTceMPZs-181" value="&lt;h1 style=&quot;margin-top: 0px;&quot;&gt;&lt;font style=&quot;font-size: 18px;&quot;&gt;つぶやきへの返信&lt;/font&gt;&lt;/h1&gt;" style="text;html=1;whiteSpace=wrap;overflow=hidden;rounded=0;" vertex="1" parent="1">
          <mxGeometry x="5000" y="1200" width="180" height="40" as="geometry" />
        </mxCell>
        <mxCell id="7OgDLUYvquiYCTceMPZs-182" value="返信編集ボタン" style="rounded=1;whiteSpace=wrap;html=1;" vertex="1" parent="1">
          <mxGeometry x="5120" y="1320" width="120" height="40" as="geometry" />
        </mxCell>
        <mxCell id="7OgDLUYvquiYCTceMPZs-183" value="返信の入力" style="rounded=1;whiteSpace=wrap;html=1;" vertex="1" parent="1">
          <mxGeometry x="5120" y="1400" width="120" height="40" as="geometry" />
        </mxCell>
        <mxCell id="7OgDLUYvquiYCTceMPZs-184" value="" style="endArrow=classic;html=1;rounded=0;exitX=0.5;exitY=1;exitDx=0;exitDy=0;entryX=0.5;entryY=0;entryDx=0;entryDy=0;" edge="1" parent="1" source="7OgDLUYvquiYCTceMPZs-183" target="7OgDLUYvquiYCTceMPZs-185">
          <mxGeometry width="50" height="50" relative="1" as="geometry">
            <mxPoint x="5190" y="1370" as="sourcePoint" />
            <mxPoint x="5220" y="1470" as="targetPoint" />
          </mxGeometry>
        </mxCell>
        <mxCell id="7OgDLUYvquiYCTceMPZs-185" value="" style="rhombus;whiteSpace=wrap;html=1;" vertex="1" parent="1">
          <mxGeometry x="5160" y="1480" width="40" height="40" as="geometry" />
        </mxCell>
        <mxCell id="7OgDLUYvquiYCTceMPZs-186" value="" style="edgeStyle=elbowEdgeStyle;elbow=horizontal;endArrow=classic;html=1;curved=0;rounded=0;endSize=8;startSize=8;exitX=1;exitY=0.5;exitDx=0;exitDy=0;entryX=1;entryY=0.5;entryDx=0;entryDy=0;" edge="1" parent="1" source="7OgDLUYvquiYCTceMPZs-185" target="7OgDLUYvquiYCTceMPZs-183">
          <mxGeometry width="50" height="50" relative="1" as="geometry">
            <mxPoint x="5420" y="1600" as="sourcePoint" />
            <mxPoint x="5470" y="1550" as="targetPoint" />
            <Array as="points">
              <mxPoint x="5260" y="1460" />
            </Array>
          </mxGeometry>
        </mxCell>
        <mxCell id="7OgDLUYvquiYCTceMPZs-187" value="下書き保存" style="text;html=1;align=center;verticalAlign=middle;whiteSpace=wrap;rounded=0;" vertex="1" parent="1">
          <mxGeometry x="5280" y="1450" width="70" height="20" as="geometry" />
        </mxCell>
        <mxCell id="7OgDLUYvquiYCTceMPZs-188" value="" style="endArrow=classic;html=1;rounded=0;exitX=0.5;exitY=1;exitDx=0;exitDy=0;entryX=0.5;entryY=0;entryDx=0;entryDy=0;" edge="1" parent="1" source="7OgDLUYvquiYCTceMPZs-185">
          <mxGeometry width="50" height="50" relative="1" as="geometry">
            <mxPoint x="5190" y="1450" as="sourcePoint" />
            <mxPoint x="5180" y="1560" as="targetPoint" />
          </mxGeometry>
        </mxCell>
        <mxCell id="7OgDLUYvquiYCTceMPZs-189" value="投稿ボタン" style="rounded=1;whiteSpace=wrap;html=1;" vertex="1" parent="1">
          <mxGeometry x="5120" y="1560" width="120" height="40" as="geometry" />
        </mxCell>
        <mxCell id="7OgDLUYvquiYCTceMPZs-190" value="" style="endArrow=classic;html=1;rounded=0;exitX=1;exitY=0.5;exitDx=0;exitDy=0;entryX=0;entryY=0.5;entryDx=0;entryDy=0;" edge="1" parent="1" source="7OgDLUYvquiYCTceMPZs-189" target="7OgDLUYvquiYCTceMPZs-191">
          <mxGeometry width="50" height="50" relative="1" as="geometry">
            <mxPoint x="5370" y="1430" as="sourcePoint" />
            <mxPoint x="5360" y="1580" as="targetPoint" />
          </mxGeometry>
        </mxCell>
        <mxCell id="7OgDLUYvquiYCTceMPZs-191" value="DB登録" style="rounded=1;whiteSpace=wrap;html=1;" vertex="1" parent="1">
          <mxGeometry x="5360" y="1560" width="120" height="40" as="geometry" />
        </mxCell>
        <mxCell id="7OgDLUYvquiYCTceMPZs-192" value="" style="endArrow=classic;html=1;rounded=0;exitX=0.5;exitY=1;exitDx=0;exitDy=0;entryX=0.5;entryY=0;entryDx=0;entryDy=0;" edge="1" parent="1">
          <mxGeometry width="50" height="50" relative="1" as="geometry">
            <mxPoint x="5179.49" y="1360" as="sourcePoint" />
            <mxPoint x="5179.49" y="1400" as="targetPoint" />
          </mxGeometry>
        </mxCell>
        <mxCell id="7OgDLUYvquiYCTceMPZs-193" value="評価" style="rounded=1;whiteSpace=wrap;html=1;" vertex="1" parent="1">
          <mxGeometry x="6440" y="480" width="120" height="40" as="geometry" />
        </mxCell>
        <mxCell id="7OgDLUYvquiYCTceMPZs-194" value="評価依頼" style="rounded=1;whiteSpace=wrap;html=1;" vertex="1" parent="1">
          <mxGeometry x="6203" y="480" width="120" height="40" as="geometry" />
        </mxCell>
        <mxCell id="7OgDLUYvquiYCTceMPZs-195" value="" style="endArrow=classic;html=1;rounded=0;exitX=0.5;exitY=1;exitDx=0;exitDy=0;entryX=0.5;entryY=0;entryDx=0;entryDy=0;" edge="1" parent="1">
          <mxGeometry width="50" height="50" relative="1" as="geometry">
            <mxPoint x="6262.7" y="440" as="sourcePoint" />
            <mxPoint x="6262.7" y="480" as="targetPoint" />
          </mxGeometry>
        </mxCell>
        <mxCell id="7OgDLUYvquiYCTceMPZs-196" value="" style="endArrow=classic;html=1;rounded=0;exitX=0;exitY=0.5;exitDx=0;exitDy=0;" edge="1" parent="1" source="7OgDLUYvquiYCTceMPZs-193" target="7OgDLUYvquiYCTceMPZs-194">
          <mxGeometry width="50" height="50" relative="1" as="geometry">
            <mxPoint x="6090" y="430" as="sourcePoint" />
            <mxPoint x="6210" y="430" as="targetPoint" />
          </mxGeometry>
        </mxCell>
        <mxCell id="7OgDLUYvquiYCTceMPZs-197" value="" style="rhombus;whiteSpace=wrap;html=1;" vertex="1" parent="1">
          <mxGeometry x="6240" y="560" width="40" height="40" as="geometry" />
        </mxCell>
        <mxCell id="7OgDLUYvquiYCTceMPZs-198" value="" style="endArrow=classic;html=1;rounded=0;exitX=0.5;exitY=1;exitDx=0;exitDy=0;entryX=0.5;entryY=0;entryDx=0;entryDy=0;" edge="1" parent="1">
          <mxGeometry width="50" height="50" relative="1" as="geometry">
            <mxPoint x="6259.74" y="520" as="sourcePoint" />
            <mxPoint x="6259.74" y="560" as="targetPoint" />
          </mxGeometry>
        </mxCell>
        <mxCell id="7OgDLUYvquiYCTceMPZs-199" value="破棄" style="rounded=1;whiteSpace=wrap;html=1;" vertex="1" parent="1">
          <mxGeometry x="6083" y="640" width="120" height="40" as="geometry" />
        </mxCell>
        <mxCell id="7OgDLUYvquiYCTceMPZs-200" value="大百科登録" style="rounded=1;whiteSpace=wrap;html=1;" vertex="1" parent="1">
          <mxGeometry x="6320" y="640" width="120" height="40" as="geometry" />
        </mxCell>
        <mxCell id="7OgDLUYvquiYCTceMPZs-202" value="" style="edgeStyle=segmentEdgeStyle;endArrow=classic;html=1;curved=0;rounded=0;endSize=8;startSize=8;exitX=0;exitY=0.5;exitDx=0;exitDy=0;entryX=0.5;entryY=0;entryDx=0;entryDy=0;" edge="1" parent="1" source="7OgDLUYvquiYCTceMPZs-197" target="7OgDLUYvquiYCTceMPZs-199">
          <mxGeometry width="50" height="50" relative="1" as="geometry">
            <mxPoint x="6180" y="440" as="sourcePoint" />
            <mxPoint x="6230" y="390" as="targetPoint" />
          </mxGeometry>
        </mxCell>
        <mxCell id="7OgDLUYvquiYCTceMPZs-203" value="" style="edgeStyle=segmentEdgeStyle;endArrow=classic;html=1;curved=0;rounded=0;endSize=8;startSize=8;exitX=1;exitY=0.5;exitDx=0;exitDy=0;" edge="1" parent="1" source="7OgDLUYvquiYCTceMPZs-197" target="7OgDLUYvquiYCTceMPZs-200">
          <mxGeometry width="50" height="50" relative="1" as="geometry">
            <mxPoint x="6250" y="590" as="sourcePoint" />
            <mxPoint x="6153" y="650" as="targetPoint" />
          </mxGeometry>
        </mxCell>
        <mxCell id="7OgDLUYvquiYCTceMPZs-204" value="" style="ellipse;whiteSpace=wrap;html=1;aspect=fixed;fillColor=#000000;" vertex="1" parent="1">
          <mxGeometry x="6000" y="1240" width="40" height="40" as="geometry" />
        </mxCell>
        <mxCell id="7OgDLUYvquiYCTceMPZs-205" value="大百科編集ボタン" style="rounded=1;whiteSpace=wrap;html=1;" vertex="1" parent="1">
          <mxGeometry x="5960" y="1320" width="120" height="40" as="geometry" />
        </mxCell>
        <mxCell id="7OgDLUYvquiYCTceMPZs-206" value="" style="endArrow=classic;html=1;rounded=0;exitX=0.5;exitY=1;exitDx=0;exitDy=0;" edge="1" parent="1" source="7OgDLUYvquiYCTceMPZs-205">
          <mxGeometry width="50" height="50" relative="1" as="geometry">
            <mxPoint x="6370" y="1450" as="sourcePoint" />
            <mxPoint x="6020" y="1400" as="targetPoint" />
          </mxGeometry>
        </mxCell>
        <mxCell id="7OgDLUYvquiYCTceMPZs-207" value="" style="endArrow=classic;html=1;rounded=0;entryX=0.5;entryY=0;entryDx=0;entryDy=0;exitX=0.5;exitY=1;exitDx=0;exitDy=0;" edge="1" parent="1" source="7OgDLUYvquiYCTceMPZs-204" target="7OgDLUYvquiYCTceMPZs-205">
          <mxGeometry width="50" height="50" relative="1" as="geometry">
            <mxPoint x="6390" y="1370" as="sourcePoint" />
            <mxPoint x="6390" y="1410" as="targetPoint" />
          </mxGeometry>
        </mxCell>
        <mxCell id="7OgDLUYvquiYCTceMPZs-208" value="&lt;h1 style=&quot;margin-top: 0px;&quot;&gt;&lt;font style=&quot;font-size: 18px;&quot;&gt;大百科編集&lt;/font&gt;&lt;/h1&gt;" style="text;html=1;whiteSpace=wrap;overflow=hidden;rounded=0;" vertex="1" parent="1">
          <mxGeometry x="5840" y="1200" width="180" height="40" as="geometry" />
        </mxCell>
        <mxCell id="7OgDLUYvquiYCTceMPZs-209" value="大百科の入力" style="rounded=1;whiteSpace=wrap;html=1;" vertex="1" parent="1">
          <mxGeometry x="5960" y="1400" width="120" height="40" as="geometry" />
        </mxCell>
        <mxCell id="7OgDLUYvquiYCTceMPZs-210" value="" style="endArrow=classic;html=1;rounded=0;exitX=0.5;exitY=1;exitDx=0;exitDy=0;entryX=0.5;entryY=0;entryDx=0;entryDy=0;" edge="1" parent="1" target="7OgDLUYvquiYCTceMPZs-211">
          <mxGeometry width="50" height="50" relative="1" as="geometry">
            <mxPoint x="6020" y="1440" as="sourcePoint" />
            <mxPoint x="6060" y="1470" as="targetPoint" />
          </mxGeometry>
        </mxCell>
        <mxCell id="7OgDLUYvquiYCTceMPZs-211" value="" style="rhombus;whiteSpace=wrap;html=1;" vertex="1" parent="1">
          <mxGeometry x="6000" y="1480" width="40" height="40" as="geometry" />
        </mxCell>
        <mxCell id="7OgDLUYvquiYCTceMPZs-212" value="" style="edgeStyle=elbowEdgeStyle;elbow=horizontal;endArrow=classic;html=1;curved=0;rounded=0;endSize=8;startSize=8;exitX=1;exitY=0.5;exitDx=0;exitDy=0;entryX=1;entryY=0.5;entryDx=0;entryDy=0;" edge="1" parent="1" source="7OgDLUYvquiYCTceMPZs-211">
          <mxGeometry width="50" height="50" relative="1" as="geometry">
            <mxPoint x="6260" y="1600" as="sourcePoint" />
            <mxPoint x="6080" y="1420" as="targetPoint" />
            <Array as="points">
              <mxPoint x="6100" y="1460" />
            </Array>
          </mxGeometry>
        </mxCell>
        <mxCell id="7OgDLUYvquiYCTceMPZs-213" value="下書き保存" style="text;html=1;align=center;verticalAlign=middle;whiteSpace=wrap;rounded=0;" vertex="1" parent="1">
          <mxGeometry x="6120" y="1450" width="70" height="20" as="geometry" />
        </mxCell>
        <mxCell id="7OgDLUYvquiYCTceMPZs-214" value="" style="endArrow=classic;html=1;rounded=0;exitX=0.5;exitY=1;exitDx=0;exitDy=0;entryX=0.5;entryY=0;entryDx=0;entryDy=0;" edge="1" parent="1" source="7OgDLUYvquiYCTceMPZs-211" target="7OgDLUYvquiYCTceMPZs-215">
          <mxGeometry width="50" height="50" relative="1" as="geometry">
            <mxPoint x="6030" y="1530" as="sourcePoint" />
            <mxPoint x="6020" y="1640" as="targetPoint" />
          </mxGeometry>
        </mxCell>
        <mxCell id="7OgDLUYvquiYCTceMPZs-215" value="投稿ボタン" style="rounded=1;whiteSpace=wrap;html=1;" vertex="1" parent="1">
          <mxGeometry x="5960" y="1560" width="120" height="40" as="geometry" />
        </mxCell>
        <mxCell id="7OgDLUYvquiYCTceMPZs-216" value="" style="endArrow=classic;html=1;rounded=0;exitX=1;exitY=0.5;exitDx=0;exitDy=0;entryX=0;entryY=0.5;entryDx=0;entryDy=0;" edge="1" parent="1" source="7OgDLUYvquiYCTceMPZs-215" target="7OgDLUYvquiYCTceMPZs-217">
          <mxGeometry width="50" height="50" relative="1" as="geometry">
            <mxPoint x="6210" y="1430" as="sourcePoint" />
            <mxPoint x="6200" y="1580" as="targetPoint" />
          </mxGeometry>
        </mxCell>
        <mxCell id="7OgDLUYvquiYCTceMPZs-217" value="DB仮登録" style="rounded=1;whiteSpace=wrap;html=1;" vertex="1" parent="1">
          <mxGeometry x="6200" y="1560" width="120" height="40" as="geometry" />
        </mxCell>
        <mxCell id="7OgDLUYvquiYCTceMPZs-218" value="評価" style="rounded=1;whiteSpace=wrap;html=1;" vertex="1" parent="1">
          <mxGeometry x="6440" y="1640" width="120" height="40" as="geometry" />
        </mxCell>
        <mxCell id="7OgDLUYvquiYCTceMPZs-219" value="評価依頼" style="rounded=1;whiteSpace=wrap;html=1;" vertex="1" parent="1">
          <mxGeometry x="6203" y="1640" width="120" height="40" as="geometry" />
        </mxCell>
        <mxCell id="7OgDLUYvquiYCTceMPZs-220" value="" style="endArrow=classic;html=1;rounded=0;exitX=0.5;exitY=1;exitDx=0;exitDy=0;entryX=0.5;entryY=0;entryDx=0;entryDy=0;" edge="1" parent="1">
          <mxGeometry width="50" height="50" relative="1" as="geometry">
            <mxPoint x="6262.7" y="1600" as="sourcePoint" />
            <mxPoint x="6262.7" y="1640" as="targetPoint" />
          </mxGeometry>
        </mxCell>
        <mxCell id="7OgDLUYvquiYCTceMPZs-221" value="" style="endArrow=classic;html=1;rounded=0;exitX=0;exitY=0.5;exitDx=0;exitDy=0;" edge="1" parent="1" source="7OgDLUYvquiYCTceMPZs-218" target="7OgDLUYvquiYCTceMPZs-219">
          <mxGeometry width="50" height="50" relative="1" as="geometry">
            <mxPoint x="6090" y="1590" as="sourcePoint" />
            <mxPoint x="6210" y="1590" as="targetPoint" />
          </mxGeometry>
        </mxCell>
        <mxCell id="7OgDLUYvquiYCTceMPZs-222" value="" style="rhombus;whiteSpace=wrap;html=1;" vertex="1" parent="1">
          <mxGeometry x="6240" y="1720" width="40" height="40" as="geometry" />
        </mxCell>
        <mxCell id="7OgDLUYvquiYCTceMPZs-223" value="" style="endArrow=classic;html=1;rounded=0;exitX=0.5;exitY=1;exitDx=0;exitDy=0;entryX=0.5;entryY=0;entryDx=0;entryDy=0;" edge="1" parent="1">
          <mxGeometry width="50" height="50" relative="1" as="geometry">
            <mxPoint x="6259.74" y="1680" as="sourcePoint" />
            <mxPoint x="6259.74" y="1720" as="targetPoint" />
          </mxGeometry>
        </mxCell>
        <mxCell id="7OgDLUYvquiYCTceMPZs-224" value="編集破棄" style="rounded=1;whiteSpace=wrap;html=1;" vertex="1" parent="1">
          <mxGeometry x="6083" y="1800" width="120" height="40" as="geometry" />
        </mxCell>
        <mxCell id="7OgDLUYvquiYCTceMPZs-225" value="大百科登録" style="rounded=1;whiteSpace=wrap;html=1;" vertex="1" parent="1">
          <mxGeometry x="6320" y="1800" width="120" height="40" as="geometry" />
        </mxCell>
        <mxCell id="7OgDLUYvquiYCTceMPZs-226" value="" style="edgeStyle=segmentEdgeStyle;endArrow=classic;html=1;curved=0;rounded=0;endSize=8;startSize=8;exitX=0;exitY=0.5;exitDx=0;exitDy=0;entryX=0.5;entryY=0;entryDx=0;entryDy=0;" edge="1" parent="1" source="7OgDLUYvquiYCTceMPZs-222" target="7OgDLUYvquiYCTceMPZs-224">
          <mxGeometry width="50" height="50" relative="1" as="geometry">
            <mxPoint x="6180" y="1600" as="sourcePoint" />
            <mxPoint x="6230" y="1550" as="targetPoint" />
          </mxGeometry>
        </mxCell>
        <mxCell id="7OgDLUYvquiYCTceMPZs-227" value="" style="edgeStyle=segmentEdgeStyle;endArrow=classic;html=1;curved=0;rounded=0;endSize=8;startSize=8;exitX=1;exitY=0.5;exitDx=0;exitDy=0;" edge="1" parent="1" source="7OgDLUYvquiYCTceMPZs-222" target="7OgDLUYvquiYCTceMPZs-225">
          <mxGeometry width="50" height="50" relative="1" as="geometry">
            <mxPoint x="6250" y="1750" as="sourcePoint" />
            <mxPoint x="6153" y="1810" as="targetPoint" />
          </mxGeometry>
        </mxCell>
        <mxCell id="7OgDLUYvquiYCTceMPZs-228" value="" style="ellipse;whiteSpace=wrap;html=1;aspect=fixed;fillColor=#000000;" vertex="1" parent="1">
          <mxGeometry x="200" y="1240" width="40" height="40" as="geometry" />
        </mxCell>
        <mxCell id="7OgDLUYvquiYCTceMPZs-229" value="アカウント&lt;div&gt;編集ボタン&lt;/div&gt;" style="rounded=1;whiteSpace=wrap;html=1;" vertex="1" parent="1">
          <mxGeometry x="160" y="1320" width="120" height="40" as="geometry" />
        </mxCell>
        <mxCell id="7OgDLUYvquiYCTceMPZs-231" value="" style="endArrow=classic;html=1;rounded=0;exitX=0.5;exitY=1;exitDx=0;exitDy=0;" edge="1" parent="1" source="7OgDLUYvquiYCTceMPZs-229">
          <mxGeometry width="50" height="50" relative="1" as="geometry">
            <mxPoint x="570" y="1450" as="sourcePoint" />
            <mxPoint x="220" y="1400" as="targetPoint" />
          </mxGeometry>
        </mxCell>
        <mxCell id="7OgDLUYvquiYCTceMPZs-233" value="" style="endArrow=classic;html=1;rounded=0;entryX=0.5;entryY=0;entryDx=0;entryDy=0;exitX=0.5;exitY=1;exitDx=0;exitDy=0;" edge="1" parent="1" source="7OgDLUYvquiYCTceMPZs-228" target="7OgDLUYvquiYCTceMPZs-229">
          <mxGeometry width="50" height="50" relative="1" as="geometry">
            <mxPoint x="590" y="1370" as="sourcePoint" />
            <mxPoint x="590" y="1410" as="targetPoint" />
          </mxGeometry>
        </mxCell>
        <mxCell id="7OgDLUYvquiYCTceMPZs-235" value="&lt;h1 style=&quot;margin-top: 0px;&quot;&gt;&lt;font style=&quot;font-size: 18px;&quot;&gt;メールアドレス変更&lt;/font&gt;&lt;/h1&gt;" style="text;html=1;whiteSpace=wrap;overflow=hidden;rounded=0;" vertex="1" parent="1">
          <mxGeometry x="40" y="1200" width="180" height="40" as="geometry" />
        </mxCell>
        <mxCell id="7OgDLUYvquiYCTceMPZs-240" value="メールアドレス入力" style="rounded=1;whiteSpace=wrap;html=1;" vertex="1" parent="1">
          <mxGeometry x="160" y="1400" width="120" height="40" as="geometry" />
        </mxCell>
        <mxCell id="7OgDLUYvquiYCTceMPZs-241" value="メアドチェック" style="rounded=1;whiteSpace=wrap;html=1;" vertex="1" parent="1">
          <mxGeometry x="400" y="1400" width="120" height="40" as="geometry" />
        </mxCell>
        <mxCell id="7OgDLUYvquiYCTceMPZs-242" value="" style="rhombus;whiteSpace=wrap;html=1;" vertex="1" parent="1">
          <mxGeometry x="440" y="1480" width="40" height="40" as="geometry" />
        </mxCell>
        <mxCell id="7OgDLUYvquiYCTceMPZs-243" value="" style="endArrow=classic;html=1;rounded=0;entryX=0;entryY=0.5;entryDx=0;entryDy=0;" edge="1" parent="1" source="7OgDLUYvquiYCTceMPZs-240" target="7OgDLUYvquiYCTceMPZs-241">
          <mxGeometry width="50" height="50" relative="1" as="geometry">
            <mxPoint x="570" y="1530" as="sourcePoint" />
            <mxPoint x="620" y="1480" as="targetPoint" />
          </mxGeometry>
        </mxCell>
        <mxCell id="7OgDLUYvquiYCTceMPZs-244" value="" style="endArrow=classic;html=1;rounded=0;entryX=0.5;entryY=0;entryDx=0;entryDy=0;exitX=0.5;exitY=1;exitDx=0;exitDy=0;" edge="1" parent="1" source="7OgDLUYvquiYCTceMPZs-241" target="7OgDLUYvquiYCTceMPZs-242">
          <mxGeometry width="50" height="50" relative="1" as="geometry">
            <mxPoint x="170" y="1430" as="sourcePoint" />
            <mxPoint x="410" y="1430" as="targetPoint" />
          </mxGeometry>
        </mxCell>
        <mxCell id="7OgDLUYvquiYCTceMPZs-245" value="重複あり" style="text;html=1;align=center;verticalAlign=middle;whiteSpace=wrap;rounded=0;" vertex="1" parent="1">
          <mxGeometry x="240" y="1480" width="60" height="20" as="geometry" />
        </mxCell>
        <mxCell id="7OgDLUYvquiYCTceMPZs-246" value="" style="edgeStyle=segmentEdgeStyle;endArrow=classic;html=1;curved=0;rounded=0;endSize=8;startSize=8;exitX=0;exitY=0.5;exitDx=0;exitDy=0;entryX=0.5;entryY=1;entryDx=0;entryDy=0;" edge="1" parent="1" source="7OgDLUYvquiYCTceMPZs-242" target="7OgDLUYvquiYCTceMPZs-240">
          <mxGeometry width="50" height="50" relative="1" as="geometry">
            <mxPoint x="570" y="1610" as="sourcePoint" />
            <mxPoint x="620" y="1560" as="targetPoint" />
          </mxGeometry>
        </mxCell>
        <mxCell id="7OgDLUYvquiYCTceMPZs-247" value="" style="endArrow=classic;html=1;rounded=0;entryX=0.5;entryY=0;entryDx=0;entryDy=0;exitX=0.5;exitY=1;exitDx=0;exitDy=0;" edge="1" parent="1" source="7OgDLUYvquiYCTceMPZs-242">
          <mxGeometry width="50" height="50" relative="1" as="geometry">
            <mxPoint x="470" y="1450" as="sourcePoint" />
            <mxPoint x="460" y="1560" as="targetPoint" />
          </mxGeometry>
        </mxCell>
        <mxCell id="7OgDLUYvquiYCTceMPZs-248" value="重複無し" style="text;html=1;align=center;verticalAlign=middle;whiteSpace=wrap;rounded=0;" vertex="1" parent="1">
          <mxGeometry x="480" y="1530" width="60" height="20" as="geometry" />
        </mxCell>
        <mxCell id="7OgDLUYvquiYCTceMPZs-249" value="登録URLの送信" style="rounded=1;whiteSpace=wrap;html=1;" vertex="1" parent="1">
          <mxGeometry x="400" y="1560" width="120" height="40" as="geometry" />
        </mxCell>
        <mxCell id="7OgDLUYvquiYCTceMPZs-250" value="" style="edgeStyle=elbowEdgeStyle;elbow=vertical;endArrow=classic;html=1;curved=0;rounded=0;endSize=8;startSize=8;exitX=0.5;exitY=1;exitDx=0;exitDy=0;" edge="1" parent="1">
          <mxGeometry width="50" height="50" relative="1" as="geometry">
            <mxPoint x="460" y="1600" as="sourcePoint" />
            <mxPoint x="220" y="1640" as="targetPoint" />
          </mxGeometry>
        </mxCell>
        <mxCell id="7OgDLUYvquiYCTceMPZs-251" value="URLクリック" style="rounded=1;whiteSpace=wrap;html=1;" vertex="1" parent="1">
          <mxGeometry x="160" y="1640" width="120" height="40" as="geometry" />
        </mxCell>
        <mxCell id="7OgDLUYvquiYCTceMPZs-252" value="変更を登録" style="rounded=1;whiteSpace=wrap;html=1;" vertex="1" parent="1">
          <mxGeometry x="400" y="1640" width="120" height="40" as="geometry" />
        </mxCell>
        <mxCell id="7OgDLUYvquiYCTceMPZs-253" value="" style="endArrow=classic;html=1;rounded=0;entryX=0;entryY=0.5;entryDx=0;entryDy=0;" edge="1" parent="1" target="7OgDLUYvquiYCTceMPZs-252">
          <mxGeometry width="50" height="50" relative="1" as="geometry">
            <mxPoint x="280" y="1660" as="sourcePoint" />
            <mxPoint x="620" y="1720" as="targetPoint" />
          </mxGeometry>
        </mxCell>
        <mxCell id="7OgDLUYvquiYCTceMPZs-254" value="" style="ellipse;whiteSpace=wrap;html=1;aspect=fixed;fillColor=#000000;" vertex="1" parent="1">
          <mxGeometry x="200" y="1800" width="40" height="40" as="geometry" />
        </mxCell>
        <mxCell id="7OgDLUYvquiYCTceMPZs-255" value="アカウント&lt;div&gt;編集ボタン&lt;/div&gt;" style="rounded=1;whiteSpace=wrap;html=1;" vertex="1" parent="1">
          <mxGeometry x="160" y="1880" width="120" height="40" as="geometry" />
        </mxCell>
        <mxCell id="7OgDLUYvquiYCTceMPZs-256" value="" style="endArrow=classic;html=1;rounded=0;exitX=0.5;exitY=1;exitDx=0;exitDy=0;" edge="1" parent="1" source="7OgDLUYvquiYCTceMPZs-255">
          <mxGeometry width="50" height="50" relative="1" as="geometry">
            <mxPoint x="570" y="2010" as="sourcePoint" />
            <mxPoint x="220" y="1960" as="targetPoint" />
          </mxGeometry>
        </mxCell>
        <mxCell id="7OgDLUYvquiYCTceMPZs-257" value="" style="endArrow=classic;html=1;rounded=0;entryX=0.5;entryY=0;entryDx=0;entryDy=0;exitX=0.5;exitY=1;exitDx=0;exitDy=0;" edge="1" parent="1" source="7OgDLUYvquiYCTceMPZs-254" target="7OgDLUYvquiYCTceMPZs-255">
          <mxGeometry width="50" height="50" relative="1" as="geometry">
            <mxPoint x="590" y="1930" as="sourcePoint" />
            <mxPoint x="590" y="1970" as="targetPoint" />
          </mxGeometry>
        </mxCell>
        <mxCell id="7OgDLUYvquiYCTceMPZs-258" value="&lt;h1 style=&quot;margin-top: 0px;&quot;&gt;&lt;font style=&quot;font-size: 18px;&quot;&gt;ユーザID変更&lt;/font&gt;&lt;/h1&gt;" style="text;html=1;whiteSpace=wrap;overflow=hidden;rounded=0;" vertex="1" parent="1">
          <mxGeometry x="40" y="1760" width="180" height="40" as="geometry" />
        </mxCell>
        <mxCell id="7OgDLUYvquiYCTceMPZs-259" value="ユーザID入力" style="rounded=1;whiteSpace=wrap;html=1;" vertex="1" parent="1">
          <mxGeometry x="160" y="1960" width="120" height="40" as="geometry" />
        </mxCell>
        <mxCell id="7OgDLUYvquiYCTceMPZs-260" value="ユーザIDチェック" style="rounded=1;whiteSpace=wrap;html=1;" vertex="1" parent="1">
          <mxGeometry x="400" y="1960" width="120" height="40" as="geometry" />
        </mxCell>
        <mxCell id="7OgDLUYvquiYCTceMPZs-261" value="" style="rhombus;whiteSpace=wrap;html=1;" vertex="1" parent="1">
          <mxGeometry x="440" y="2040" width="40" height="40" as="geometry" />
        </mxCell>
        <mxCell id="7OgDLUYvquiYCTceMPZs-262" value="" style="endArrow=classic;html=1;rounded=0;entryX=0;entryY=0.5;entryDx=0;entryDy=0;" edge="1" parent="1" source="7OgDLUYvquiYCTceMPZs-259" target="7OgDLUYvquiYCTceMPZs-260">
          <mxGeometry width="50" height="50" relative="1" as="geometry">
            <mxPoint x="570" y="2090" as="sourcePoint" />
            <mxPoint x="620" y="2040" as="targetPoint" />
          </mxGeometry>
        </mxCell>
        <mxCell id="7OgDLUYvquiYCTceMPZs-263" value="" style="endArrow=classic;html=1;rounded=0;entryX=0.5;entryY=0;entryDx=0;entryDy=0;exitX=0.5;exitY=1;exitDx=0;exitDy=0;" edge="1" parent="1" source="7OgDLUYvquiYCTceMPZs-260" target="7OgDLUYvquiYCTceMPZs-261">
          <mxGeometry width="50" height="50" relative="1" as="geometry">
            <mxPoint x="170" y="1990" as="sourcePoint" />
            <mxPoint x="410" y="1990" as="targetPoint" />
          </mxGeometry>
        </mxCell>
        <mxCell id="7OgDLUYvquiYCTceMPZs-264" value="重複あり" style="text;html=1;align=center;verticalAlign=middle;whiteSpace=wrap;rounded=0;" vertex="1" parent="1">
          <mxGeometry x="240" y="2040" width="60" height="20" as="geometry" />
        </mxCell>
        <mxCell id="7OgDLUYvquiYCTceMPZs-265" value="" style="edgeStyle=segmentEdgeStyle;endArrow=classic;html=1;curved=0;rounded=0;endSize=8;startSize=8;exitX=0;exitY=0.5;exitDx=0;exitDy=0;entryX=0.5;entryY=1;entryDx=0;entryDy=0;" edge="1" parent="1" source="7OgDLUYvquiYCTceMPZs-261" target="7OgDLUYvquiYCTceMPZs-259">
          <mxGeometry width="50" height="50" relative="1" as="geometry">
            <mxPoint x="570" y="2170" as="sourcePoint" />
            <mxPoint x="620" y="2120" as="targetPoint" />
          </mxGeometry>
        </mxCell>
        <mxCell id="7OgDLUYvquiYCTceMPZs-266" value="" style="endArrow=classic;html=1;rounded=0;entryX=0.5;entryY=0;entryDx=0;entryDy=0;exitX=0.5;exitY=1;exitDx=0;exitDy=0;" edge="1" parent="1" source="7OgDLUYvquiYCTceMPZs-261">
          <mxGeometry width="50" height="50" relative="1" as="geometry">
            <mxPoint x="470" y="2010" as="sourcePoint" />
            <mxPoint x="460" y="2120" as="targetPoint" />
          </mxGeometry>
        </mxCell>
        <mxCell id="7OgDLUYvquiYCTceMPZs-267" value="重複無し" style="text;html=1;align=center;verticalAlign=middle;whiteSpace=wrap;rounded=0;" vertex="1" parent="1">
          <mxGeometry x="480" y="2090" width="60" height="20" as="geometry" />
        </mxCell>
        <mxCell id="7OgDLUYvquiYCTceMPZs-268" value="ユーザID変更通知&lt;div&gt;の送信&lt;/div&gt;" style="rounded=1;whiteSpace=wrap;html=1;" vertex="1" parent="1">
          <mxGeometry x="480" y="2160" width="120" height="40" as="geometry" />
        </mxCell>
        <mxCell id="7OgDLUYvquiYCTceMPZs-271" value="変更を登録" style="rounded=1;whiteSpace=wrap;html=1;" vertex="1" parent="1">
          <mxGeometry x="320" y="2160" width="120" height="40" as="geometry" />
        </mxCell>
        <mxCell id="7OgDLUYvquiYCTceMPZs-274" value="" style="ellipse;whiteSpace=wrap;html=1;aspect=fixed;fillColor=#000000;" vertex="1" parent="1">
          <mxGeometry x="1040" y="1240" width="40" height="40" as="geometry" />
        </mxCell>
        <mxCell id="7OgDLUYvquiYCTceMPZs-275" value="アカウント&lt;div&gt;編集ボタン&lt;/div&gt;" style="rounded=1;whiteSpace=wrap;html=1;" vertex="1" parent="1">
          <mxGeometry x="1000" y="1320" width="120" height="40" as="geometry" />
        </mxCell>
        <mxCell id="7OgDLUYvquiYCTceMPZs-276" value="" style="endArrow=classic;html=1;rounded=0;exitX=0.5;exitY=1;exitDx=0;exitDy=0;" edge="1" parent="1" source="7OgDLUYvquiYCTceMPZs-275">
          <mxGeometry width="50" height="50" relative="1" as="geometry">
            <mxPoint x="1410" y="1450" as="sourcePoint" />
            <mxPoint x="1060" y="1400" as="targetPoint" />
          </mxGeometry>
        </mxCell>
        <mxCell id="7OgDLUYvquiYCTceMPZs-277" value="" style="endArrow=classic;html=1;rounded=0;entryX=0.5;entryY=0;entryDx=0;entryDy=0;exitX=0.5;exitY=1;exitDx=0;exitDy=0;" edge="1" parent="1" source="7OgDLUYvquiYCTceMPZs-274" target="7OgDLUYvquiYCTceMPZs-275">
          <mxGeometry width="50" height="50" relative="1" as="geometry">
            <mxPoint x="1430" y="1370" as="sourcePoint" />
            <mxPoint x="1430" y="1410" as="targetPoint" />
          </mxGeometry>
        </mxCell>
        <mxCell id="7OgDLUYvquiYCTceMPZs-278" value="&lt;h1 style=&quot;margin-top: 0px;&quot;&gt;&lt;font style=&quot;font-size: 18px;&quot;&gt;パスワード変更&lt;/font&gt;&lt;/h1&gt;" style="text;html=1;whiteSpace=wrap;overflow=hidden;rounded=0;" vertex="1" parent="1">
          <mxGeometry x="880" y="1200" width="180" height="40" as="geometry" />
        </mxCell>
        <mxCell id="7OgDLUYvquiYCTceMPZs-279" value="パスワード情報入力" style="rounded=1;whiteSpace=wrap;html=1;" vertex="1" parent="1">
          <mxGeometry x="1000" y="1400" width="120" height="40" as="geometry" />
        </mxCell>
        <mxCell id="7OgDLUYvquiYCTceMPZs-280" value="パスワードチェック" style="rounded=1;whiteSpace=wrap;html=1;" vertex="1" parent="1">
          <mxGeometry x="1240" y="1400" width="120" height="40" as="geometry" />
        </mxCell>
        <mxCell id="7OgDLUYvquiYCTceMPZs-281" value="" style="rhombus;whiteSpace=wrap;html=1;" vertex="1" parent="1">
          <mxGeometry x="1280" y="1480" width="40" height="40" as="geometry" />
        </mxCell>
        <mxCell id="7OgDLUYvquiYCTceMPZs-282" value="" style="endArrow=classic;html=1;rounded=0;entryX=0;entryY=0.5;entryDx=0;entryDy=0;" edge="1" parent="1" source="7OgDLUYvquiYCTceMPZs-279" target="7OgDLUYvquiYCTceMPZs-280">
          <mxGeometry width="50" height="50" relative="1" as="geometry">
            <mxPoint x="1410" y="1530" as="sourcePoint" />
            <mxPoint x="1460" y="1480" as="targetPoint" />
          </mxGeometry>
        </mxCell>
        <mxCell id="7OgDLUYvquiYCTceMPZs-283" value="" style="endArrow=classic;html=1;rounded=0;entryX=0.5;entryY=0;entryDx=0;entryDy=0;exitX=0.5;exitY=1;exitDx=0;exitDy=0;" edge="1" parent="1" source="7OgDLUYvquiYCTceMPZs-280" target="7OgDLUYvquiYCTceMPZs-281">
          <mxGeometry width="50" height="50" relative="1" as="geometry">
            <mxPoint x="1010" y="1430" as="sourcePoint" />
            <mxPoint x="1250" y="1430" as="targetPoint" />
          </mxGeometry>
        </mxCell>
        <mxCell id="7OgDLUYvquiYCTceMPZs-284" value="否認" style="text;html=1;align=center;verticalAlign=middle;whiteSpace=wrap;rounded=0;" vertex="1" parent="1">
          <mxGeometry x="1080" y="1480" width="60" height="20" as="geometry" />
        </mxCell>
        <mxCell id="7OgDLUYvquiYCTceMPZs-285" value="" style="edgeStyle=segmentEdgeStyle;endArrow=classic;html=1;curved=0;rounded=0;endSize=8;startSize=8;exitX=0;exitY=0.5;exitDx=0;exitDy=0;entryX=0.5;entryY=1;entryDx=0;entryDy=0;" edge="1" parent="1" source="7OgDLUYvquiYCTceMPZs-281" target="7OgDLUYvquiYCTceMPZs-279">
          <mxGeometry width="50" height="50" relative="1" as="geometry">
            <mxPoint x="1410" y="1610" as="sourcePoint" />
            <mxPoint x="1460" y="1560" as="targetPoint" />
          </mxGeometry>
        </mxCell>
        <mxCell id="7OgDLUYvquiYCTceMPZs-286" value="" style="endArrow=classic;html=1;rounded=0;entryX=0.5;entryY=0;entryDx=0;entryDy=0;exitX=0.5;exitY=1;exitDx=0;exitDy=0;" edge="1" parent="1" source="7OgDLUYvquiYCTceMPZs-281">
          <mxGeometry width="50" height="50" relative="1" as="geometry">
            <mxPoint x="1310" y="1450" as="sourcePoint" />
            <mxPoint x="1300" y="1560" as="targetPoint" />
          </mxGeometry>
        </mxCell>
        <mxCell id="7OgDLUYvquiYCTceMPZs-287" value="承認" style="text;html=1;align=center;verticalAlign=middle;whiteSpace=wrap;rounded=0;" vertex="1" parent="1">
          <mxGeometry x="1320" y="1530" width="60" height="20" as="geometry" />
        </mxCell>
        <mxCell id="7OgDLUYvquiYCTceMPZs-288" value="パスワード変更通知&lt;div&gt;の送信&lt;/div&gt;" style="rounded=1;whiteSpace=wrap;html=1;" vertex="1" parent="1">
          <mxGeometry x="1320" y="1600" width="120" height="40" as="geometry" />
        </mxCell>
        <mxCell id="7OgDLUYvquiYCTceMPZs-289" value="変更を登録" style="rounded=1;whiteSpace=wrap;html=1;" vertex="1" parent="1">
          <mxGeometry x="1160" y="1600" width="120" height="40" as="geometry" />
        </mxCell>
        <mxCell id="7OgDLUYvquiYCTceMPZs-291" value="&lt;h1 style=&quot;margin-top: 0px;&quot;&gt;&lt;font style=&quot;font-size: 18px;&quot;&gt;パスワード情報&lt;/font&gt;&lt;/h1&gt;&lt;p&gt;・旧パスワード&lt;/p&gt;&lt;p&gt;・新パスワード&lt;/p&gt;" style="text;html=1;whiteSpace=wrap;overflow=hidden;rounded=0;" vertex="1" parent="1">
          <mxGeometry x="870" y="1440" width="180" height="100" as="geometry" />
        </mxCell>
        <mxCell id="7OgDLUYvquiYCTceMPZs-293" value="" style="ellipse;whiteSpace=wrap;html=1;aspect=fixed;fillColor=#000000;" vertex="1" parent="1">
          <mxGeometry x="1050" y="1760" width="40" height="40" as="geometry" />
        </mxCell>
        <mxCell id="7OgDLUYvquiYCTceMPZs-294" value="ユーザ情報&lt;br&gt;&lt;div&gt;編集ボタン&lt;/div&gt;" style="rounded=1;whiteSpace=wrap;html=1;" vertex="1" parent="1">
          <mxGeometry x="1010" y="1840" width="120" height="40" as="geometry" />
        </mxCell>
        <mxCell id="7OgDLUYvquiYCTceMPZs-295" value="" style="endArrow=classic;html=1;rounded=0;exitX=0.5;exitY=1;exitDx=0;exitDy=0;" edge="1" parent="1" source="7OgDLUYvquiYCTceMPZs-294">
          <mxGeometry width="50" height="50" relative="1" as="geometry">
            <mxPoint x="1420" y="1970" as="sourcePoint" />
            <mxPoint x="1070" y="1920" as="targetPoint" />
          </mxGeometry>
        </mxCell>
        <mxCell id="7OgDLUYvquiYCTceMPZs-296" value="" style="endArrow=classic;html=1;rounded=0;entryX=0.5;entryY=0;entryDx=0;entryDy=0;exitX=0.5;exitY=1;exitDx=0;exitDy=0;" edge="1" parent="1" source="7OgDLUYvquiYCTceMPZs-293" target="7OgDLUYvquiYCTceMPZs-294">
          <mxGeometry width="50" height="50" relative="1" as="geometry">
            <mxPoint x="1440" y="1890" as="sourcePoint" />
            <mxPoint x="1440" y="1930" as="targetPoint" />
          </mxGeometry>
        </mxCell>
        <mxCell id="7OgDLUYvquiYCTceMPZs-297" value="&lt;span style=&quot;font-size: 18px;&quot;&gt;ユーザ情報更新&lt;/span&gt;" style="text;html=1;whiteSpace=wrap;overflow=hidden;rounded=0;" vertex="1" parent="1">
          <mxGeometry x="890" y="1720" width="180" height="40" as="geometry" />
        </mxCell>
        <mxCell id="7OgDLUYvquiYCTceMPZs-298" value="ユーザ情報入力" style="rounded=1;whiteSpace=wrap;html=1;" vertex="1" parent="1">
          <mxGeometry x="1010" y="1920" width="120" height="40" as="geometry" />
        </mxCell>
        <mxCell id="7OgDLUYvquiYCTceMPZs-308" value="DBに登録" style="rounded=1;whiteSpace=wrap;html=1;" vertex="1" parent="1">
          <mxGeometry x="1241" y="2000" width="120" height="40" as="geometry" />
        </mxCell>
        <mxCell id="7OgDLUYvquiYCTceMPZs-309" value="&lt;h1 style=&quot;margin-top: 0px;&quot;&gt;&lt;font style=&quot;font-size: 18px;&quot;&gt;ユーザ情報&lt;/font&gt;&lt;/h1&gt;&lt;p&gt;・ユーザ名&lt;/p&gt;&lt;p&gt;・プロフィール文&lt;/p&gt;&lt;p&gt;・アイコン&lt;/p&gt;&lt;p&gt;・ヘッダー&lt;/p&gt;" style="text;html=1;whiteSpace=wrap;overflow=hidden;rounded=0;" vertex="1" parent="1">
          <mxGeometry x="880" y="1960" width="180" height="160" as="geometry" />
        </mxCell>
        <mxCell id="7OgDLUYvquiYCTceMPZs-312" value="" style="edgeStyle=elbowEdgeStyle;elbow=vertical;endArrow=classic;html=1;curved=0;rounded=0;endSize=8;startSize=8;exitX=0.5;exitY=1;exitDx=0;exitDy=0;entryX=0.5;entryY=0;entryDx=0;entryDy=0;" edge="1" parent="1" source="7OgDLUYvquiYCTceMPZs-298" target="7OgDLUYvquiYCTceMPZs-308">
          <mxGeometry width="50" height="50" relative="1" as="geometry">
            <mxPoint x="470" y="1610" as="sourcePoint" />
            <mxPoint x="230" y="1650" as="targetPoint" />
          </mxGeometry>
        </mxCell>
      </root>
    </mxGraphModel>
  </diagram>
</mxfile>
